<svg width="24" height="20" viewBox="0 0 24 20" fill="none" xmlns="http://www.w3.org/2000/svg">
<path d="M23.065 10.612C23.0646 10.1685 22.9666 9.73043 22.778 9.329C22.759 9.229 22.737 9.129 22.71 9.029L20.71 4.064L20.696 4.019C19.996 1.932 18.996 0 16.468 0H6.795C4.203 0 3.288 1.98 2.571 4.007L0.471002 8.984C0.164059 9.47159 0.000813901 10.0358 1.89791e-06 10.612V12.157C-0.000263276 12.3927 0.0272599 12.6277 0.0820019 12.857C0.0282405 12.9957 0.000445141 13.1432 1.89791e-06 13.292V17.892C1.89791e-06 18.2156 0.128537 18.5259 0.357332 18.7547C0.586126 18.9835 0.896438 19.112 1.22 19.112H3.752C4.07557 19.112 4.38588 18.9835 4.61467 18.7547C4.84347 18.5259 4.972 18.2156 4.972 17.892V15.592H18.238V17.892C18.238 18.2156 18.3665 18.5259 18.5953 18.7547C18.8241 18.9835 19.1344 19.112 19.458 19.112H21.845C22.1686 19.112 22.4789 18.9835 22.7077 18.7547C22.9365 18.5259 23.065 18.2156 23.065 17.892V13.292C23.0646 13.1425 23.0368 12.9944 22.983 12.855C23.0376 12.6257 23.0651 12.3907 23.065 12.155V10.612ZM4.058 4.502C4.858 2.251 5.497 1.564 6.795 1.564H16.465C17.753 1.564 18.47 2.33 19.199 4.492L20.661 7.455C20.1631 7.27188 19.6365 7.17876 19.106 7.18H3.96C3.48102 7.17948 3.00503 7.25544 2.55 7.405L4.058 4.502ZM5.314 12.744H2.642C2.41087 12.744 2.1892 12.6522 2.02576 12.4887C1.86232 12.3253 1.7705 12.1036 1.7705 11.8725C1.7705 11.6414 1.86232 11.4197 2.02576 11.2563C2.1892 11.0928 2.41087 11.001 2.642 11.001H5.314C5.54514 11.001 5.76681 11.0928 5.93025 11.2563C6.09368 11.4197 6.1855 11.6414 6.1855 11.8725C6.1855 12.1036 6.09368 12.3253 5.93025 12.4887C5.76681 12.6522 5.54514 12.744 5.314 12.744ZM14.751 12.569H8.537C8.39923 12.5572 8.27089 12.4942 8.17737 12.3924C8.08384 12.2905 8.03195 12.1573 8.03195 12.019C8.03195 11.8807 8.08384 11.7475 8.17737 11.6456C8.27089 11.5438 8.39923 11.4808 8.537 11.469H14.751C14.8272 11.4625 14.9039 11.4719 14.9762 11.4966C15.0486 11.5213 15.115 11.5607 15.1713 11.6124C15.2276 11.6641 15.2726 11.727 15.3033 11.797C15.3341 11.8669 15.3499 11.9426 15.3499 12.019C15.3499 12.0954 15.3341 12.1711 15.3033 12.241C15.2726 12.311 15.2276 12.3739 15.1713 12.4256C15.115 12.4773 15.0486 12.5167 14.9762 12.5414C14.9039 12.5661 14.8272 12.5755 14.751 12.569ZM20.351 12.744H17.684C17.4529 12.744 17.2312 12.6522 17.0678 12.4887C16.9043 12.3253 16.8125 12.1036 16.8125 11.8725C16.8125 11.6414 16.9043 11.4197 17.0678 11.2563C17.2312 11.0928 17.4529 11.001 17.684 11.001H20.355C20.5861 11.001 20.8078 11.0928 20.9712 11.2563C21.1347 11.4197 21.2265 11.6414 21.2265 11.8725C21.2265 12.1036 21.1347 12.3253 20.9712 12.4887C20.8078 12.6522 20.5861 12.744 20.355 12.744H20.351Z" fill="#807D84"/>
</svg>
