<svg width="305" height="306" viewBox="0 0 305 306" fill="none" xmlns="http://www.w3.org/2000/svg">
<g clip-path="url(#clip0)">
<path d="M152.5 305.463C236.723 305.463 305 298.523 305 289.963C305 281.403 236.723 274.463 152.5 274.463C68.2766 274.463 0 281.403 0 289.963C0 298.523 68.2766 305.463 152.5 305.463Z" fill="black"/>
<path d="M262.038 70.356C262.438 67.43 258.312 65.023 255.209 64.773C253.73 64.654 252.193 64.88 250.79 64.391C247.753 63.333 246.54 59.409 243.576 58.159C241.361 57.225 238.81 58.059 236.662 59.137C234.514 60.215 232.392 61.579 229.992 61.737C227.904 61.871 225.638 61.097 223.812 62.117C222.451 62.876 221.738 64.445 220.484 65.369C219.178 66.1743 217.668 66.5842 216.134 66.549C214.606 66.5116 213.085 66.7602 211.649 67.282C210.937 67.5597 210.333 68.0602 209.928 68.709C209.523 69.3578 209.339 70.12 209.403 70.882L262.038 70.356Z" fill="#F5F5F5"/>
<path d="M174.369 75.311C173.801 73.6589 173.353 71.9678 173.03 70.251C172.949 69.7874 172.772 69.3459 172.51 68.9554C172.247 68.5648 171.906 68.2338 171.507 67.984C170.91 67.8054 170.302 67.6678 169.687 67.572C167.547 66.931 166.963 63.943 164.937 63.016C164.283 62.7725 163.596 62.6299 162.899 62.593C160.186 62.273 157.382 61.334 155.676 59.205C155.189 58.4638 154.63 57.7734 154.005 57.144C153.68 56.8384 153.263 56.65 152.819 56.6086C152.375 56.5673 151.93 56.6755 151.555 56.916C152.127 58.06 152.688 59.205 153.249 60.338C153.694 61.4008 154.339 62.3683 155.149 63.188C155.562 63.592 156.082 63.8708 156.647 63.9924C157.212 64.1139 157.8 64.0732 158.343 63.875C158.66 63.652 159.033 63.5211 159.42 63.497C159.7 63.5548 159.95 63.7139 160.12 63.944C161.597 65.581 161.12 68.294 159.674 69.965C158.228 71.636 156.114 72.494 154.064 73.307C153.356 73.6618 152.564 73.8163 151.775 73.754C150.356 73.491 149.6 71.945 149.188 70.56C148.261 67.492 147.815 64.16 145.914 61.574C145.227 60.8205 144.646 59.9771 144.186 59.067C143.797 58.037 143.886 56.834 143.27 55.93C142.628 54.98 141.27 54.43 141.17 53.286C141.189 52.8802 141.325 52.4888 141.563 52.1595C141.801 51.8302 142.13 51.5774 142.509 51.432C143.242 51.077 144.066 50.974 144.822 50.665C145.122 50.539 145.451 50.322 145.463 50.001C145.463 49.52 144.799 49.326 144.627 48.879C144.444 48.379 144.959 47.906 145.176 47.414C145.646 46.292 144.476 45.159 143.345 44.701C142.214 44.243 140.861 43.911 140.334 42.812C140.142 42.2843 140.019 41.7341 139.968 41.175C139.865 40.4725 139.555 39.8167 139.078 39.2907C138.601 38.7647 137.978 38.3924 137.289 38.221C136.944 38.1651 136.592 38.1864 136.256 38.2834C135.921 38.3803 135.611 38.5505 135.349 38.7816C135.088 39.0127 134.88 39.299 134.743 39.6198C134.605 39.9407 134.54 40.2881 134.553 40.637C134.811 41.3648 135.153 42.0602 135.572 42.709C135.892 43.418 135.8 44.472 135.072 44.701C133.872 45.067 132.714 42.869 131.707 43.624C132.119 45.032 132.52 46.441 132.932 47.86C131.352 48.66 129.463 47.207 128.788 45.56C128.113 43.913 128.088 42.046 127.288 40.465C126.488 38.884 124.323 37.695 122.949 38.817C122.881 40.855 125.571 41.679 126.761 43.327C126.981 43.6168 127.142 43.9472 127.234 44.2993C127.326 44.6514 127.348 45.0182 127.298 45.3788C127.248 45.7393 127.127 46.0863 126.943 46.4001C126.758 46.7138 126.514 46.988 126.223 47.207C124.964 47.962 122.961 46.646 123.441 45.261C123.613 44.78 124.014 44.379 124.059 43.861C124.105 43.22 123.567 42.705 123.075 42.293C122.308 41.64 121.541 41 120.775 40.359C120.304 39.9087 119.747 39.5583 119.137 39.329C117.558 38.871 115.978 40.153 115.142 41.561C114.306 42.969 113.837 44.64 112.681 45.82C112.265 46.2395 111.77 46.5729 111.224 46.8011C110.679 47.0293 110.094 47.1479 109.503 47.15C108.912 47.1522 108.326 47.0379 107.78 46.8136C107.233 46.5893 106.735 46.2595 106.316 45.843C104.748 44.043 105.549 40.681 107.85 40.028C108.719 39.787 109.819 39.81 110.277 39.043C111.077 37.681 108.789 35.943 109.577 34.568C110.183 33.515 111.786 33.995 112.954 33.64C114.122 33.285 114.763 32.118 115.454 31.111C116.145 30.104 117.194 29.111 118.384 29.371C118.223 28.6791 118.267 27.9555 118.51 27.288C118.578 27.1268 118.678 26.9813 118.805 26.8606C118.932 26.7399 119.082 26.6466 119.246 26.5865C119.41 26.5263 119.585 26.5007 119.76 26.5111C119.934 26.5215 120.105 26.5678 120.261 26.647C120.152 26.9039 120.094 27.1799 120.092 27.4591C120.09 27.7383 120.143 28.0152 120.249 28.2738C120.354 28.5323 120.509 28.7675 120.706 28.9658C120.902 29.1641 121.136 29.3215 121.394 29.429C122.461 29.813 123.614 29.896 124.725 29.669C125.847 29.532 127.255 29.12 127.347 27.998C127.381 27.631 127.247 27.242 127.381 26.898C127.873 25.559 130.346 27.398 131.296 26.325C131.845 25.764 131.239 24.768 130.472 24.586C129.696 24.5159 128.914 24.5542 128.148 24.7C127.37 24.734 126.419 24.322 126.385 23.544C126.351 22.766 127.209 22.227 127.301 21.472C127.45 20.189 125.275 19.858 124.507 20.899C123.739 21.94 124.015 23.372 124.244 24.642C124.473 25.912 124.598 27.412 123.66 28.306C123.26 28.913 122.218 28.592 121.874 27.951C121.613 27.2688 121.5 26.5391 121.542 25.81C121.556 25.4429 121.46 25.0801 121.266 24.7682C121.072 24.4562 120.789 24.2092 120.454 24.059C119.94 24.0144 119.422 24.0729 118.931 24.231C116.939 24.471 115.554 21.896 116.184 19.996C116.814 18.096 118.611 16.859 120.362 15.886C121.645 15.176 123.236 14.512 124.506 15.233C125.106 15.565 125.514 16.133 126.098 16.481C127.105 17.081 128.353 16.859 129.509 16.881C131.342 16.9316 133.102 17.6149 134.489 18.815C135.004 19.284 135.489 20.063 135.089 20.624C134.654 21.224 133.406 21.346 133.624 22.043C133.961 22.1363 134.313 22.1575 134.659 22.1053C135.004 22.053 135.334 21.9284 135.628 21.7396C135.922 21.5508 136.173 21.3021 136.364 21.0097C136.556 20.7174 136.683 20.3879 136.738 20.043C137.069 20.1958 137.354 20.4326 137.564 20.7299C137.775 21.0271 137.904 21.3744 137.938 21.737C138.315 21.3893 138.76 21.1235 139.244 20.9565C139.729 20.7895 140.243 20.725 140.754 20.7669C141.265 20.8088 141.762 20.9563 142.213 21.2001C142.664 21.4438 143.06 21.7785 143.375 22.183C143.633 22.6698 143.974 23.1075 144.383 23.476C144.841 23.776 145.642 23.625 145.7 23.087C145.709 22.9154 145.677 22.7442 145.608 22.587C145.333 21.809 145.047 21.042 144.772 20.274C145.837 19.702 147.096 20.595 147.817 21.557C150.496 25.14 152.407 22.988 156.184 23.571C158.737 23.96 159.859 25.597 161.301 27.578C165.72 33.668 171.558 38.659 175.576 45.023C175.999 45.687 176.389 46.362 176.755 47.049C176.687 46.877 176.63 46.706 176.561 46.534C174.992 42.403 173.037 38.4289 170.723 34.664C170.231 33.864 169.727 33.0743 169.212 32.295C168.892 31.814 168.559 31.322 168.228 30.852C167.805 30.234 167.358 29.639 166.911 29.043C166.556 28.562 166.202 28.093 165.835 27.635C165.583 27.315 165.32 26.994 165.057 26.673C164.783 26.307 164.485 25.952 164.164 25.597L163.202 24.487C163.105 24.367 163.002 24.2525 162.893 24.144C162.561 23.755 162.206 23.377 161.851 22.999C161.827 22.9535 161.793 22.9144 161.751 22.885C161.659 22.785 161.556 22.679 161.451 22.576C161.164 22.256 160.851 21.947 160.558 21.638C160.066 21.138 159.558 20.63 159.047 20.15C158.624 19.727 158.189 19.326 157.742 18.926C157.353 18.571 156.964 18.216 156.563 17.873C156.162 17.53 155.785 17.198 155.384 16.865C154.903 16.453 154.411 16.052 153.907 15.652H153.895C152.51 14.542 151.083 13.4927 149.614 12.504C149.248 12.252 148.893 12.012 148.526 11.771C148.159 11.53 147.782 11.29 147.416 11.061C147.05 10.832 146.672 10.592 146.294 10.374C145.916 10.134 145.538 9.91599 145.161 9.69899C144.852 9.51599 144.554 9.34399 144.245 9.18399C144.094 9.08742 143.937 8.99961 143.776 8.92099C143.123 8.55399 142.46 8.199 141.796 7.868C141.464 7.696 141.132 7.525 140.788 7.368C140.365 7.15 139.93 6.945 139.495 6.75C139.434 6.71283 139.369 6.682 139.301 6.65799C138.912 6.47499 138.523 6.292 138.122 6.12C137.561 5.879 137 5.639 136.439 5.41C135.798 5.147 135.156 4.88299 134.504 4.64299C133.783 4.36799 133.062 4.10499 132.33 3.86499C131.598 3.62499 130.853 3.37299 130.109 3.14299C129.365 2.91299 128.621 2.708 127.865 2.502C126.377 2.102 124.865 1.747 123.344 1.438C123.321 1.426 123.287 1.42599 123.263 1.41499C122.68 1.30099 122.095 1.18699 121.512 1.09499C121.475 1.08284 121.436 1.07512 121.397 1.07199C121.145 1.02599 120.882 0.980995 120.619 0.945995C119.532 0.762995 118.433 0.613995 117.319 0.487995C117.193 0.464995 117.056 0.453994 116.919 0.441994C116.598 0.395994 116.278 0.373995 115.946 0.341995C115.214 0.273995 114.481 0.215994 113.737 0.169994C112.97 0.112994 112.192 0.0789959 111.413 0.0559959C110.6 0.0219959 109.788 0.00999451 108.975 0.00999451C106.822 0.00999451 104.693 0.105327 102.587 0.295994C102.087 0.330994 101.587 0.376995 101.099 0.432995C100.583 0.489995 100.068 0.547993 99.554 0.615993C99.04 0.683994 98.523 0.752996 98.02 0.833996C97.517 0.914996 97.001 0.993995 96.486 1.08599C96.051 1.15499 95.605 1.235 95.17 1.327C94.094 1.533 93.0293 1.762 91.976 2.014C91.4833 2.128 90.991 2.25399 90.499 2.39199C90.007 2.51799 89.515 2.655 89.034 2.792C88.221 3.02 87.434 3.27299 86.641 3.52499H86.629C85.988 3.74299 85.336 3.95999 84.706 4.17799C84.6887 4.18073 84.6726 4.18876 84.66 4.20099C84.007 4.42999 83.378 4.66999 82.737 4.92199L82.637 4.95699C82.054 5.18499 81.469 5.42599 80.898 5.66599C80.176 5.96599 79.467 6.284 78.769 6.605C78.169 6.879 77.59 7.15399 77.017 7.43999C76.399 7.74899 75.781 8.05799 75.174 8.37899L75.106 8.41299C74.522 8.72199 73.938 9.04199 73.366 9.37399C72.766 9.70599 72.187 10.05 71.603 10.416H71.591C71.042 10.748 70.503 11.079 69.966 11.423C69.759 11.549 69.566 11.686 69.359 11.823C68.786 12.19 68.237 12.567 67.676 12.956C66.989 13.425 66.325 13.917 65.662 14.41C65.078 14.845 64.506 15.292 63.945 15.738C60.7056 18.3168 57.6944 21.1701 54.945 24.266C53.972 25.342 53.056 26.441 52.163 27.566C51.407 28.528 50.675 29.501 49.976 30.508C49.3467 31.3833 48.7393 32.2753 48.154 33.184C48.7393 32.2773 49.3467 31.3853 49.976 30.508C50.159 30.485 50.343 30.462 50.526 30.451C51.5626 30.4753 52.5948 30.3085 53.571 29.959C54.3635 29.4387 55.1138 28.857 55.815 28.219C57.807 26.8 61.07 26.536 61.608 24.155C61.637 23.3371 61.7249 22.5223 61.871 21.717C62.433 20.286 64.344 20.08 65.878 20.103C66.531 20.103 67.297 20.194 67.595 20.766C67.6771 20.9798 67.7134 21.2085 67.7017 21.4372C67.69 21.6659 67.6305 21.8897 67.527 22.094C66.5683 24.7854 64.7128 27.065 62.272 28.55C60.28 29.763 57.682 30.703 57.132 32.969C57.407 33.736 58.803 33.679 58.918 34.48C58.998 35.121 58.174 35.453 57.876 36.026C57.441 36.861 58.437 37.88 59.387 37.835C60.3331 37.6705 61.1939 37.1858 61.825 36.462C63.908 34.527 66.095 32.443 66.85 29.696C67.17 28.563 67.284 27.235 68.2 26.479C68.4829 26.2801 68.808 26.1493 69.1499 26.0971C69.4917 26.0449 69.841 26.0725 70.1704 26.1779C70.4998 26.2833 70.8003 26.4636 71.0483 26.7046C71.2963 26.9456 71.4852 27.2408 71.6 27.567C72.5 27.067 73.912 26.685 74.381 27.624C74.4866 27.9741 74.552 28.3351 74.576 28.7C74.876 30.165 76.876 30.829 77.083 32.306C77.323 34.011 75.137 34.893 73.431 35.156C71.886 35.396 70.341 35.636 68.795 35.889C68.1139 35.9388 67.4546 36.1507 66.872 36.507C66.5846 36.6959 66.3709 36.9778 66.2666 37.3055C66.1623 37.6332 66.1737 37.9867 66.299 38.307C66.5299 38.6143 66.7987 38.8911 67.099 39.131C67.3716 39.4706 67.5493 39.8764 67.6141 40.307C67.6789 40.7377 67.6285 41.1778 67.468 41.5826C67.3074 41.9874 67.0425 42.3425 66.7002 42.6117C66.3578 42.8808 65.9503 43.0545 65.519 43.115C64.901 43.138 64.294 42.909 63.676 42.886C61.844 42.806 60.39 44.42 59.521 46.034C58.652 47.648 57.998 49.491 56.533 50.59C54.175 52.364 50.111 51.953 48.966 54.677C48.6336 55.8231 48.6215 57.0384 48.931 58.191C49.2356 59.3515 49.0842 60.5846 48.508 61.637C47.833 62.598 46.07 62.804 45.566 61.729C45.3946 61.2389 45.371 60.7094 45.498 60.206C45.772 58.512 46.036 56.818 46.298 55.124C46.492 53.865 46.664 52.457 45.92 51.424C44.878 49.981 42.543 50.119 41.192 51.275C39.9506 52.5557 39.1522 54.2004 38.914 55.968C38.6577 57.5323 38.2197 59.0613 37.609 60.524V60.524C37.369 61.944 37.174 63.386 37.026 64.839C36.877 66.327 36.774 67.804 36.717 69.315C36.9231 69.1446 37.1182 68.9612 37.301 68.766C38.022 68.022 39.475 64.874 40.781 66.419C40.943 66.6212 41.0332 66.8715 41.0373 67.1306C41.0415 67.3896 40.9594 67.6427 40.804 67.85C40.404 68.365 39.604 68.479 39.293 69.04C38.915 69.704 39.442 70.528 40.06 70.963C40.7353 71.3074 41.3471 71.7643 41.869 72.314C42.704 73.514 41.903 75.336 42.716 76.561C43.416 77.614 44.903 77.682 46.173 77.82C46.322 77.843 46.46 77.867 46.608 77.889C46.6947 76.5624 47.2362 75.3062 48.1412 74.3324C49.0462 73.3585 50.2593 72.7265 51.576 72.543C56.316 71.467 62.543 75.394 65.21 78.965C68.186 82.965 69.595 88.615 74.151 90.618C77.413 92.049 82.051 91.533 83.64 94.728C85.059 97.59 82.587 100.806 82.209 103.977C81.969 106.071 82.656 108.155 82.816 110.25C82.976 112.345 82.347 114.806 80.435 115.687C79.371 116.168 78.035 116.11 77.173 116.912C75.65 118.355 76.898 121.331 75.373 122.773C74.7794 123.202 74.1283 123.545 73.439 123.792C70.016 125.521 70.108 130.557 71.699 134.049C71.756 134.175 71.814 134.289 71.871 134.415C83.0853 141.118 95.906 144.659 108.971 144.66C120.807 144.677 132.465 141.775 142.912 136.212H142.924C145.122 135.037 147.259 133.749 149.324 132.354C152.506 130.218 155.511 127.83 158.31 125.211C160.248 123.404 162.083 121.49 163.805 119.476C165.018 118.076 166.163 116.625 167.262 115.137C167.823 114.37 168.372 113.603 168.888 112.813C172.77 107.112 175.802 100.877 177.888 94.303C179.172 90.3068 180.095 86.2038 180.647 82.043C180.865 80.417 181.036 78.769 181.147 77.109C180.387 77.9076 179.342 78.3726 178.24 78.402C176.499 78.368 175.068 76.913 174.369 75.311Z" fill="#F5F5F5"/>
<path d="M91.699 18.929C90.265 19.785 89.499 21.403 88.399 22.654C87.299 23.905 85.31 24.798 84.005 23.754C83.7078 23.4824 83.4678 23.1542 83.2992 22.7886C83.1306 22.423 83.0367 22.0274 83.023 21.625C82.9224 20.4656 83.195 19.3045 83.801 18.311C84.425 17.296 85.375 16.497 85.901 15.429C86.427 14.361 86.32 12.797 85.24 12.296C84.655 12.025 83.92 12.131 83.401 11.749C82.469 11.062 83.136 9.438 84.22 9.029C85.3529 8.78072 86.5254 8.77425 87.661 9.01C91.854 9.278 94.938 6.533 98.089 4.252C100.54 2.478 105.762 0.382997 108.599 2.195C109.731 2.918 110.173 4.776 109.107 5.595C108.63 5.96 107.972 6.042 107.528 6.447C106.995 6.933 106.92 7.73 106.614 8.383C105.821 10.083 103.532 10.696 102.795 12.419C102.352 13.455 102.551 14.745 101.868 15.643C101.239 16.2886 100.409 16.7006 99.515 16.811L94.048 18.111C93.2281 18.263 92.436 18.5388 91.699 18.929V18.929Z" fill="#EBEBEB"/>
<path d="M140.58 107.965C138.765 110.698 138.436 114.114 137.933 117.356C137.43 120.598 136.565 124.043 134.075 126.178C131.585 128.313 127.009 128.186 125.638 125.206C124.894 123.588 125.275 121.68 124.87 119.946C124.341 117.687 122.543 115.946 121.69 113.787C121.092 111.897 120.825 109.917 120.901 107.936C120.577 97.127 117.941 85.845 110.581 77.921C109.744 76.8806 108.631 76.0965 107.369 75.658C106.6 75.4672 105.792 75.5031 105.042 75.7615C104.293 76.0198 103.634 76.4896 103.146 77.114C102.681 77.9752 102.139 78.7922 101.526 79.555C99.953 80.991 97.208 79.962 96.157 78.11C95.106 76.258 95.257 73.987 95.428 71.864C95.6453 69.232 95.863 66.6003 96.081 63.969C96.054 62.5784 96.4639 61.2143 97.253 60.069C98.538 58.583 100.842 58.514 102.414 57.336C104.474 55.793 104.749 52.848 106.048 50.624C107.347 48.4 111.415 47.461 112.017 49.965C116.317 40.757 125.826 54.436 131.48 53.408C133.121 53.108 134.726 52.321 136.38 52.552C139.298 52.96 140.805 56.175 141.798 58.952L146.742 72.768C147.37 74.523 148.181 76.468 149.919 77.146C151.25 77.662 152.797 77.268 154.139 77.757C157.687 79.048 156.533 84.631 153.679 87.101C150.825 89.571 146.818 91.129 145.461 94.652C144.438 97.306 145.254 100.416 144.154 103.038C143.361 104.914 141.705 106.27 140.58 107.965Z" fill="#EBEBEB"/>
<path d="M154.046 110.968C152.88 111.131 151.504 110.556 150.618 111.331C150.177 111.861 149.887 112.5 149.781 113.181C149.524 114.11 148.937 114.913 148.129 115.438C147.722 115.692 147.251 115.822 146.772 115.813C146.293 115.805 145.826 115.657 145.429 115.389C145.049 115.1 144.798 114.674 144.729 114.202C144.659 113.73 144.778 113.25 145.058 112.864C145.379 112.572 145.715 112.298 146.065 112.041C147.612 110.579 146.553 107.867 147.729 106.128C148.423 105.103 149.515 104.063 150.277 103.028C150.863 102.228 151.077 101.596 152.155 101.384C156.876 100.451 159.008 110.273 154.046 110.968Z" fill="#EBEBEB"/>
<path d="M36.671 71.018C36.663 71.455 36.648 71.888 36.648 72.323C36.648 72.678 36.66 73.029 36.666 73.382C36.66 73.029 36.648 72.682 36.648 72.323C36.648 71.891 36.665 71.455 36.671 71.018Z" fill="#263238"/>
<g opacity="0.6">
<g opacity="0.6">
<path opacity="0.6" d="M68.708 132.4C69.316 132.811 69.932 133.211 70.556 133.6C70.991 133.874 71.426 134.138 71.872 134.4C71.426 134.137 70.991 133.873 70.556 133.6C69.932 133.211 69.316 132.811 68.708 132.4Z" fill="#263238"/>
</g>
</g>
<g opacity="0.6">
<path opacity="0.6" d="M36.717 69.313V69.301V69.313C36.705 69.45 36.694 69.576 36.694 69.713C36.677 70.142 36.678 70.581 36.671 71.013C36.678 70.577 36.676 70.137 36.694 69.713C36.694 69.576 36.705 69.45 36.717 69.313Z" fill="#263238"/>
</g>
<g opacity="0.6">
<path opacity="0.6" d="M36.666 73.382C36.671 73.736 36.671 74.092 36.683 74.441C36.671 74.092 36.671 73.736 36.666 73.382Z" fill="#263238"/>
</g>
<path d="M82.208 103.964C82.586 100.793 85.058 97.577 83.639 94.715C82.048 91.521 77.412 92.036 74.15 90.605C69.594 88.605 68.185 82.947 65.209 78.952C62.542 75.381 56.315 71.452 51.575 72.53C50.2583 72.7135 49.0452 73.3455 48.1402 74.3194C47.2352 75.2932 46.6937 76.5494 46.607 77.876C46.459 77.853 46.321 77.83 46.172 77.807C44.901 77.67 43.413 77.601 42.715 76.548C41.902 75.323 42.703 73.503 41.868 72.301C41.3461 71.7511 40.7344 71.2943 40.059 70.95C39.441 70.515 38.915 69.691 39.292 69.027C39.601 68.466 40.403 68.352 40.803 67.837C40.9584 67.6297 41.0405 67.3766 41.0364 67.1176C41.0322 66.8585 40.942 66.6082 40.78 66.406C39.475 64.861 38.021 68.006 37.3 68.753C37.1172 68.9482 36.9221 69.1316 36.716 69.302V69.314C36.704 69.451 36.693 69.577 36.693 69.714C36.676 70.143 36.677 70.582 36.67 71.014C36.663 71.446 36.647 71.884 36.647 72.319C36.647 72.674 36.659 73.025 36.665 73.378C36.671 73.731 36.67 74.088 36.682 74.437C36.682 74.609 36.682 74.769 36.693 74.937C36.966 82.7868 38.5198 90.5393 41.293 97.888C42.5251 101.154 44.0023 104.323 45.712 107.366C46.421 108.683 47.2 109.976 48.012 111.246C49.019 112.814 50.072 114.346 51.206 115.825C52.259 117.245 53.381 118.63 54.56 119.958C56.1747 121.8 57.8826 123.557 59.677 125.224C61.2683 126.713 62.9283 128.124 64.657 129.459C60.957 119.522 57.457 109.393 51.465 100.733C57.453 109.393 60.954 119.521 64.657 129.459H64.669C65.402 130.043 66.146 130.592 66.901 131.131C67.4963 131.56 68.0963 131.98 68.701 132.392C69.3057 132.804 69.9217 133.204 70.549 133.592C70.984 133.866 71.419 134.13 71.865 134.392C71.808 134.266 71.751 134.152 71.693 134.026C70.102 130.534 70.01 125.498 73.433 123.769C74.1223 123.522 74.7734 123.179 75.367 122.75C76.89 121.308 75.642 118.331 77.167 116.889C78.025 116.089 79.367 116.145 80.429 115.664C82.341 114.783 82.959 112.333 82.81 110.227C82.661 108.121 81.965 106.058 82.208 103.964ZM46.585 85.099C46.597 84.378 46.576 83.637 46.551 82.894C46.576 83.637 46.597 84.378 46.585 85.099ZM42.807 80.165C42.5485 80.1341 42.3093 80.0126 42.132 79.822C42.0073 79.5868 41.9554 79.3198 41.983 79.055C41.908 77.729 40.849 76.772 39.697 76.021C40.849 76.771 41.908 77.728 41.983 79.055C41.9554 79.3198 42.0073 79.5868 42.132 79.822C42.3093 80.0126 42.5485 80.1341 42.807 80.165C44.013 80.4506 45.243 80.6231 46.481 80.68C45.243 80.6231 44.013 80.4506 42.807 80.165V80.165ZM46.092 91.338C46.0385 90.8214 46.0302 90.3011 46.067 89.783C45.9396 91.4006 46.2924 93.0199 47.081 94.438C46.5659 93.4732 46.2308 92.4228 46.092 91.338V91.338ZM47.623 95.398C47.816 95.714 48.023 96.025 48.232 96.332C48.021 96.024 47.817 95.717 47.624 95.398H47.623Z" fill="#EBEBEB"/>
<path d="M41.193 51.26C42.544 50.104 44.879 49.967 45.921 51.409C46.665 52.439 46.494 53.847 46.299 55.109C46.035 56.803 45.772 58.498 45.499 60.191C45.372 60.6944 45.3957 61.2239 45.567 61.714C46.067 62.789 47.834 62.583 48.509 61.622C49.0852 60.5696 49.2366 59.3365 48.932 58.176C48.6225 57.0234 48.6346 55.8081 48.967 54.662C50.111 51.938 54.175 52.349 56.534 50.575C57.999 49.475 58.652 47.633 59.522 46.019C60.392 44.405 61.846 42.791 63.677 42.871C64.295 42.894 64.901 43.123 65.52 43.1C65.9513 43.0395 66.3588 42.8658 66.7012 42.5967C67.0435 42.3275 67.3084 41.9724 67.469 41.5676C67.6295 41.1628 67.6799 40.7227 67.6151 40.292C67.5503 39.8614 67.3726 39.4556 67.1 39.116C66.7997 38.8761 66.5309 38.5993 66.3 38.292C66.1747 37.9717 66.1633 37.6181 66.2676 37.2905C66.3719 36.9628 66.5856 36.6809 66.873 36.492C67.4556 36.1357 68.1149 35.9238 68.796 35.874C70.342 35.622 71.887 35.382 73.432 35.141C75.138 34.878 77.324 33.996 77.084 32.291C76.878 30.814 74.875 30.15 74.577 28.685C74.553 28.3201 74.4876 27.9591 74.382 27.609C73.913 26.67 72.505 27.048 71.601 27.552C71.4862 27.2258 71.2974 26.9306 71.0493 26.6896C70.8013 26.4486 70.5008 26.2683 70.1714 26.1629C69.842 26.0575 69.4927 26.0299 69.1509 26.0821C68.809 26.1343 68.4839 26.265 68.201 26.464C67.285 27.22 67.171 28.547 66.851 29.681C66.095 32.428 63.908 34.511 61.826 36.447C61.1933 37.171 60.3306 37.6551 59.383 37.818C58.433 37.864 57.437 36.845 57.872 36.009C58.172 35.436 58.994 35.109 58.914 34.463C58.799 33.663 57.403 33.719 57.128 32.952C57.677 30.686 60.276 29.747 62.268 28.533C64.7074 27.0486 66.5621 24.7706 67.521 22.081C67.6245 21.8767 67.684 21.6529 67.6957 21.4242C67.7074 21.1955 67.6711 20.9668 67.589 20.753C67.289 20.18 66.525 20.09 65.872 20.09C64.338 20.067 62.427 20.273 61.865 21.704C61.7189 22.5093 61.631 23.3241 61.602 24.142C61.064 26.523 57.802 26.786 55.809 28.206C55.1078 28.8439 54.3575 29.4257 53.565 29.946C52.5888 30.2955 51.5566 30.4622 50.52 30.438C50.337 30.45 50.153 30.473 49.97 30.495C49.3407 31.3703 48.7333 32.2623 48.148 33.171C47.5627 34.0797 46.9987 35 46.456 35.932C43.8715 40.3562 41.7695 45.045 40.186 49.918C39.6253 51.6293 39.13 53.3683 38.7 55.135C38.27 56.9017 37.9067 58.6923 37.61 60.507C38.2207 59.0443 38.6587 57.5152 38.915 55.951C39.1537 54.1841 39.952 52.5401 41.193 51.26V51.26Z" fill="#EBEBEB"/>
<g opacity="0.6">
<g opacity="0.6">
<path opacity="0.6" d="M176.751 47.06C177.094 47.976 177.418 48.898 177.722 49.826C177.417 48.8973 177.094 47.9753 176.751 47.06C176.751 47.06 176.762 47.048 176.751 47.048V47.06Z" fill="#263238"/>
</g>
</g>
<path d="M181.271 71.327C181.266 70.285 181.235 69.2517 181.178 68.227C181.121 67.2023 181.042 66.1797 180.939 65.159C180.859 64.335 180.767 63.522 180.653 62.71C180.541 61.8507 180.414 60.9963 180.271 60.147C179.845 57.6144 179.281 55.107 178.581 52.636C178.314 51.692 178.028 50.7557 177.721 49.827C177.414 48.8983 177.091 47.9763 176.75 47.061V47.049C176.384 46.362 175.995 45.687 175.571 45.023C171.553 38.659 165.715 33.668 161.296 27.578C159.854 25.597 158.732 23.96 156.179 23.571C152.402 22.988 150.49 25.139 147.812 21.557C147.091 20.595 145.832 19.703 144.767 20.274C145.042 21.041 145.328 21.808 145.603 22.587C145.672 22.7442 145.704 22.9154 145.695 23.087C145.638 23.625 144.837 23.774 144.378 23.476C143.969 23.1075 143.628 22.6698 143.37 22.183C143.055 21.7785 142.659 21.4438 142.208 21.2C141.757 20.9563 141.26 20.8088 140.749 20.7669C140.238 20.725 139.724 20.7895 139.239 20.9565C138.755 21.1235 138.31 21.3893 137.933 21.737C137.899 21.3744 137.77 21.0271 137.559 20.7298C137.349 20.4326 137.064 20.1958 136.733 20.043C136.678 20.3879 136.551 20.7174 136.359 21.0097C136.168 21.3021 135.917 21.5508 135.623 21.7396C135.329 21.9284 134.999 22.053 134.654 22.1053C134.308 22.1575 133.956 22.1363 133.619 22.043C133.401 21.343 134.649 21.219 135.084 20.624C135.484 20.063 135.004 19.285 134.484 18.815C133.097 17.6149 131.337 16.9316 129.504 16.881C128.348 16.858 127.104 17.075 126.093 16.481C125.509 16.138 125.093 15.565 124.501 15.233C123.231 14.511 121.64 15.176 120.357 15.886C118.606 16.859 116.797 18.086 116.179 19.996C115.561 21.906 116.934 24.471 118.926 24.231C119.417 24.0728 119.935 24.0144 120.449 24.059C120.784 24.2092 121.067 24.4561 121.261 24.7681C121.455 25.0801 121.551 25.4429 121.537 25.81C121.495 26.5391 121.608 27.2688 121.869 27.951C122.213 28.592 123.254 28.913 123.655 28.306C124.593 27.413 124.479 25.913 124.239 24.642C123.999 23.371 123.747 21.942 124.502 20.899C125.257 19.856 127.445 20.189 127.296 21.472C127.204 22.227 126.346 22.772 126.38 23.544C126.414 24.316 127.364 24.734 128.143 24.7C128.909 24.5542 129.691 24.5159 130.467 24.586C131.234 24.769 131.84 25.765 131.291 26.325C130.341 27.401 127.868 25.558 127.376 26.898C127.239 27.241 127.376 27.631 127.342 27.998C127.25 29.12 125.842 29.532 124.72 29.669C123.609 29.896 122.456 29.813 121.389 29.429C121.131 29.3215 120.897 29.164 120.701 28.9658C120.504 28.7675 120.349 28.5323 120.244 28.2737C120.138 28.0152 120.085 27.7383 120.087 27.4591C120.089 27.1799 120.147 26.9039 120.256 26.647C120.1 26.5678 119.929 26.5215 119.755 26.5111C119.58 26.5007 119.405 26.5263 119.241 26.5865C119.077 26.6466 118.927 26.7399 118.8 26.8606C118.673 26.9813 118.573 27.1268 118.505 27.288C118.262 27.9555 118.218 28.6791 118.379 29.371C117.189 29.108 116.124 30.115 115.449 31.111C114.774 32.107 114.11 33.286 112.949 33.64C111.788 33.994 110.178 33.514 109.572 34.568C108.782 35.941 111.072 37.682 110.272 39.043C109.814 39.81 108.715 39.787 107.845 40.028C105.545 40.681 104.745 44.046 106.311 45.843C106.73 46.2595 107.228 46.5893 107.775 46.8136C108.321 47.0378 108.907 47.1522 109.498 47.15C110.089 47.1479 110.674 47.0293 111.219 46.8011C111.765 46.5729 112.26 46.2395 112.676 45.82C113.832 44.641 114.301 42.981 115.137 41.561C115.973 40.141 117.552 38.871 119.132 39.329C119.742 39.5583 120.299 39.9087 120.77 40.359C121.537 41 122.304 41.641 123.07 42.293C123.562 42.705 124.1 43.221 124.054 43.861C124.008 44.376 123.607 44.777 123.436 45.261C122.956 46.646 124.959 47.961 126.218 47.207C126.509 46.988 126.753 46.7138 126.938 46.4001C127.122 46.0863 127.243 45.7392 127.293 45.3787C127.343 45.0182 127.321 44.6514 127.229 44.2993C127.137 43.9472 126.976 43.6168 126.756 43.327C125.566 41.679 122.876 40.854 122.944 38.817C124.318 37.695 126.482 38.874 127.283 40.465C128.084 42.056 128.107 43.923 128.783 45.56C129.459 47.197 131.347 48.66 132.927 47.86C132.515 46.441 132.114 45.032 131.702 43.624C132.71 42.869 133.866 45.067 135.067 44.701C135.8 44.472 135.891 43.418 135.567 42.709C135.148 42.0602 134.806 41.3648 134.548 40.637C134.535 40.2881 134.6 39.9407 134.738 39.6198C134.875 39.299 135.083 39.0127 135.344 38.7816C135.606 38.5505 135.916 38.3803 136.251 38.2834C136.587 38.1864 136.939 38.1651 137.284 38.221C137.973 38.3924 138.596 38.7647 139.073 39.2907C139.55 39.8167 139.86 40.4725 139.963 41.175C140.014 41.7341 140.137 42.2842 140.329 42.812C140.856 43.912 142.218 44.243 143.34 44.701C144.462 45.159 145.64 46.292 145.171 47.414C144.954 47.906 144.439 48.376 144.622 48.879C144.794 49.326 145.458 49.52 145.458 50.001C145.446 50.322 145.115 50.539 144.817 50.665C144.061 50.974 143.237 51.077 142.504 51.432C142.125 51.5774 141.796 51.8302 141.558 52.1595C141.32 52.4888 141.184 52.8802 141.165 53.286C141.257 54.431 142.619 54.98 143.265 55.93C143.883 56.83 143.792 58.037 144.181 59.067C144.641 59.9771 145.222 60.8205 145.909 61.574C147.809 64.161 148.256 67.492 149.183 70.56C149.595 71.945 150.351 73.49 151.77 73.754C152.559 73.8163 153.351 73.6618 154.059 73.307C156.108 72.494 158.238 71.624 159.669 69.965C161.1 68.306 161.592 65.58 160.115 63.944C159.945 63.7139 159.695 63.5547 159.415 63.497C159.028 63.5211 158.655 63.652 158.338 63.875C157.795 64.0732 157.207 64.1139 156.642 63.9923C156.077 63.8708 155.557 63.5919 155.144 63.188C154.334 62.3683 153.689 61.4008 153.244 60.338C152.683 59.205 152.122 58.06 151.55 56.916C151.925 56.6755 152.37 56.5673 152.814 56.6086C153.258 56.6499 153.675 56.8384 154 57.144C154.625 57.7734 155.184 58.4638 155.671 59.205C157.377 61.334 160.181 62.273 162.894 62.593C163.591 62.6299 164.278 62.7725 164.932 63.016C166.958 63.944 167.542 66.931 169.682 67.572C170.297 67.6677 170.905 67.8054 171.502 67.984C171.901 68.2338 172.242 68.5648 172.505 68.9553C172.767 69.3459 172.944 69.7874 173.025 70.251C173.348 71.9678 173.796 73.6589 174.364 75.311C175.064 76.911 176.493 78.368 178.233 78.39C179.335 78.3605 180.38 77.8956 181.14 77.097V77.085C181.232 75.506 181.289 73.926 181.289 72.323C181.294 71.991 181.294 71.659 181.271 71.327Z" fill="#EBEBEB"/>
<path d="M140.88 61.007C140.638 60.5131 140.275 60.0883 139.825 59.772C139.629 59.5534 139.391 59.3763 139.125 59.2511C138.859 59.1259 138.571 59.0552 138.278 59.0432C137.984 59.0312 137.691 59.0781 137.416 59.1811C137.141 59.2841 136.889 59.4411 136.676 59.643C136.377 60.0834 136.199 60.5943 136.159 61.1249C136.118 61.6555 136.217 62.1875 136.446 62.668C136.623 63.1195 136.897 63.527 137.248 63.862C137.599 64.1971 138.019 64.4516 138.478 64.608C138.942 64.7513 139.439 64.745 139.899 64.5899C140.359 64.4348 140.759 64.1388 141.041 63.744C141.267 63.3165 141.371 62.8355 141.342 62.353C141.314 61.8705 141.154 61.405 140.88 61.007V61.007Z" fill="#EBEBEB"/>
<path d="M62.907 246.482C62.3169 243.891 62.2982 241.203 62.852 238.604C63.4058 236.005 64.5189 233.558 66.114 231.433C66.345 231.133 66.65 230.813 67.026 230.847C67.602 230.9 67.751 231.667 67.726 232.247C67.4891 237.351 65.819 242.285 62.907 246.483" fill="#E0E0E0"/>
<path d="M64.5 247.567C67.5803 248.293 70.7812 248.342 73.8822 247.711C76.9833 247.08 79.9108 245.785 82.463 243.914C79.457 242.403 76.0202 241.981 72.738 242.72C69.5043 243.309 66.5845 245.026 64.499 247.567" fill="#E0E0E0"/>
<path d="M65.834 244.263C67.6156 241.518 70.0209 239.233 72.8536 237.595C75.6864 235.957 78.8663 235.011 82.134 234.836C81.6936 236.131 80.9934 237.322 80.0764 238.336C79.1593 239.351 78.0448 240.167 76.801 240.736C74.3121 241.854 71.6805 242.623 68.981 243.02C67.94 243.22 66.512 243.445 65.837 244.263" fill="#E0E0E0"/>
<path d="M63.243 228.226C64.2657 225.124 64.9648 221.924 65.329 218.678C65.6875 215.409 65.0237 212.11 63.429 209.234C61.8223 212.191 60.9576 215.494 60.9092 218.859C60.8608 222.224 61.6301 225.551 63.151 228.553" fill="#E0E0E0"/>
<path d="M73.864 222.859C77.553 216.159 85.079 210.799 92.695 210.048C89.757 217.363 81.745 223.016 73.864 222.859Z" fill="#E0E0E0"/>
<path d="M71.544 224.173C77.044 225.011 81.734 228.525 86.875 230.655C87.9527 231.175 89.1475 231.404 90.341 231.319C90.8961 231.312 91.4357 231.135 91.8871 230.812C92.3385 230.489 92.6798 230.035 92.8652 229.512C93.0505 228.989 93.0708 228.421 92.9235 227.886C92.7761 227.351 92.4681 226.874 92.041 226.519C91.3122 225.847 90.456 225.328 89.523 224.992C83.9448 222.801 77.8103 222.458 72.023 224.016" fill="#E0E0E0"/>
<path d="M68.359 228.031C69.605 228.388 70.03 229.031 71.016 229.873C74.3799 232.732 78.3582 234.775 82.641 235.845C83.086 235.955 83.668 235.999 83.888 235.597C84.08 235.247 83.837 234.823 83.588 234.51C81.7192 232.319 79.294 230.673 76.568 229.745C73.885 228.745 71.561 227.545 68.359 227.8" fill="#E0E0E0"/>
<path d="M64.766 204.725C67.0219 206.805 69.688 208.39 72.593 209.379C75.498 210.367 78.5776 210.737 81.634 210.464C81.915 210.468 82.1879 210.37 82.402 210.188C82.827 209.726 82.317 209.013 81.823 208.627C79.4829 206.689 76.7209 205.326 73.7588 204.649C70.7966 203.971 67.7169 203.998 64.767 204.727" fill="#E0E0E0"/>
<g opacity="0.34">
<path opacity="0.34" d="M32.778 225.943C29.7584 224.051 26.3454 222.876 22.801 222.509C21.1746 222.2 19.4915 222.509 18.081 223.376C17.9302 223.463 17.8056 223.589 17.7201 223.741C17.6346 223.892 17.5914 224.064 17.595 224.238C17.671 224.485 17.8356 224.695 18.057 224.828C20.1756 226.339 22.6672 227.242 25.262 227.438C27.8569 227.635 30.456 227.118 32.778 225.943" fill="#3E548D"/>
<path opacity="0.34" d="M32.522 225.658C30.2114 223.961 28.055 222.064 26.078 219.988C24.0949 217.898 22.7009 215.32 22.038 212.516C21.9075 212.101 21.8685 211.663 21.9236 211.231C21.9786 210.799 22.1265 210.385 22.357 210.016C27.494 214.028 31.529 219.216 32.522 225.658Z" fill="#3E548D"/>
<path opacity="0.34" d="M32.728 225.901C32.251 223.097 32.2914 220.23 32.847 217.441C33.4206 214.631 35.0292 212.139 37.354 210.459C38.242 212.534 37.86 214.924 37.235 217.092C36.2655 220.45 34.7562 223.628 32.766 226.501" fill="#3E548D"/>
<path opacity="0.34" d="M37.761 234.924C34.7387 235.41 31.9427 236.826 29.761 238.973C27.4664 241.061 25.8686 243.804 25.184 246.83C28.184 246.645 30.727 244.53 32.571 242.16C34.415 239.79 35.694 237.188 37.72 234.97" fill="#3E548D"/>
<path opacity="0.34" d="M38.855 236.367C37.6518 233.312 37.2301 230.004 37.6281 226.745C38.026 223.485 39.2311 220.376 41.134 217.7C42.0442 220.803 42.3115 224.059 41.9197 227.269C41.5278 230.478 40.485 233.574 38.855 236.367" fill="#3E548D"/>
<path opacity="0.34" d="M45.507 244.29C42.7131 244.116 39.9298 244.768 37.5037 246.165C35.0777 247.561 33.116 249.641 31.863 252.144C31.693 252.482 31.544 252.911 31.771 253.214C31.8886 253.327 32.0318 253.411 32.1885 253.457C32.3451 253.503 32.5107 253.511 32.671 253.48C35.36 253.306 37.743 251.688 39.709 249.846C41.675 248.004 43.389 245.875 45.562 244.282" fill="#3E548D"/>
<path opacity="0.34" d="M45.297 243.858C43.8646 239.245 43.7765 234.319 45.043 229.658C45.543 227.831 46.383 225.907 48.072 225.051C48.1397 225.007 48.2158 224.976 48.2956 224.962C48.3754 224.949 48.4572 224.951 48.536 224.97C48.673 225.042 48.7776 225.163 48.829 225.309C49.3969 226.588 49.6421 227.986 49.543 229.382C49.4434 230.771 49.23 232.15 48.905 233.505C48.373 236.025 48.09 238.733 46.705 240.905C46.3789 241.428 46.0853 241.971 45.826 242.53C45.565 243.083 45.563 243.277 45.326 243.716" fill="#3E548D"/>
<path opacity="0.34" d="M69.026 203.166C72.012 200.968 75.4754 199.508 79.1334 198.905C82.7914 198.301 86.5403 198.571 90.074 199.693C87.3199 202.245 83.7867 203.795 80.044 204.093C76.3452 204.43 72.6159 204.115 69.026 203.162" fill="#3E548D"/>
<path opacity="0.34" d="M67.333 192.456C66.846 187.507 67.162 183.599 66.819 178.626C66.791 178.226 66.706 177.751 66.334 177.608C65.817 177.408 65.385 178.044 65.216 178.572C64.4953 180.877 64.3108 183.316 64.6765 185.704C65.0421 188.091 65.9484 190.363 67.326 192.347" fill="#3E548D"/>
<path opacity="0.34" d="M66.976 193.003C70.2094 190.915 72.9965 188.206 75.176 185.034C76.795 182.819 78.16 180.164 77.792 177.444C76.6519 177.474 75.5321 177.753 74.5106 178.26C73.4891 178.767 72.5904 179.491 71.877 180.381C70.4635 182.173 69.4369 184.238 68.862 186.447C68.205 188.625 67.746 190.863 66.976 193.003Z" fill="#3E548D"/>
<path opacity="0.34" d="M75.032 190.766C82.4126 188.032 89.2458 184.002 95.21 178.866C92.8 177.895 90.04 178.476 87.63 179.449C82.1613 181.523 77.6428 185.53 74.93 190.711" fill="#3E548D"/>
<path opacity="0.34" d="M69.242 195.712C72.9553 196.242 76.7237 196.261 80.442 195.767C84.0516 195.018 87.5619 193.851 90.902 192.291C91.1985 192.207 91.4523 192.014 91.613 191.751C91.6667 191.594 91.6712 191.424 91.6258 191.264C91.5805 191.104 91.4874 190.962 91.359 190.856C91.0979 190.65 90.7926 190.507 90.467 190.438C86.7171 189.533 82.7824 189.768 79.167 191.113C75.7078 192.296 72.3817 193.838 69.243 195.713" fill="#3E548D"/>
<path opacity="0.34" d="M47.972 204.895C46.7733 202.333 46.1369 199.543 46.1057 196.715C46.0744 193.886 46.6491 191.083 47.791 188.495C49.336 190.85 49.525 193.849 49.242 196.651C48.959 199.453 48.107 202.338 48.051 205.151" fill="#3E548D"/>
<path opacity="0.34" d="M37.819 199.774C34.6376 199.733 31.4825 200.356 28.5554 201.602C25.6282 202.849 22.9933 204.693 20.819 207.016C24.0253 207.4 27.2724 206.798 30.128 205.29C32.9612 203.785 35.6343 201.995 38.106 199.95" fill="#3E548D"/>
<path opacity="0.34" d="M30.993 197.491C27.893 197.239 24.903 196.856 21.918 197.77C20.4113 198.193 19.0134 198.936 17.8198 199.948C16.6261 200.96 15.6647 202.218 15.001 203.635C17.9297 203.871 20.868 203.316 23.509 202.028C26.1344 200.742 28.6391 199.223 30.993 197.49" fill="#3E548D"/>
<path opacity="0.34" d="M41.1 197.596C38.307 195.766 35.44 193.903 32.188 193.145C28.936 192.387 25.169 192.945 22.901 195.397C25.533 196.942 28.727 197.124 31.779 197.122C34.831 197.12 38.572 197.085 41.449 198.103" fill="#3E548D"/>
<path opacity="0.34" d="M41.116 197.743C36.342 193.055 34.532 184.633 36.453 178.224C40.2218 183.994 41.8701 190.893 41.116 197.743" fill="#3E548D"/>
<path opacity="0.34" d="M54.244 184.46C55.144 182.367 55.778 180.17 56.585 178.039C57.3216 175.876 58.4535 173.869 59.923 172.12C61.4159 170.363 63.5394 169.262 65.836 169.056C65.102 172.286 63.7023 175.327 61.7265 177.985C59.7506 180.643 57.2421 182.859 54.361 184.493" fill="#3E548D"/>
<path opacity="0.34" d="M51.868 187.227C50.378 185.176 48.657 182.392 46.636 180.862C45.6565 180.053 44.5125 179.466 43.2835 179.143C42.0544 178.821 40.7699 178.769 39.519 178.993C40.7956 181.231 42.5765 183.141 44.7201 184.57C46.8638 186 49.3112 186.91 51.868 187.228" fill="#3E548D"/>
<path opacity="0.34" d="M52.343 184.631C51.2727 182.186 50.4823 179.627 49.987 177.004C49.4968 174.358 49.9177 171.625 51.181 169.249C53.801 174.203 54.646 179.52 52.476 184.688" fill="#3E548D"/>
<path opacity="0.34" d="M54.268 169.249C55.752 164.339 60.249 160.723 65.103 159.063C65.7042 158.817 66.356 158.719 67.003 158.778C67.3254 158.813 67.6302 158.943 67.8792 159.151C68.1283 159.359 68.3105 159.635 68.403 159.946C68.58 160.782 67.89 161.53 67.241 162.085C63.4456 165.326 59.0318 167.763 54.267 169.248" fill="#3E548D"/>
<path opacity="0.34" d="M54.321 165.233C54.3676 162.057 54.8443 158.903 55.738 155.855C56.1934 154.332 56.9504 152.916 57.964 151.692C58.9775 150.468 60.227 149.46 61.638 148.728C62.129 151.928 60.719 155.108 59.017 157.86C57.315 160.612 55.265 163.209 54.243 166.279" fill="#3E548D"/>
<path opacity="0.34" d="M54.244 167.413C53.017 163.834 52.89 159.288 50.744 156.171C49.244 153.992 46.844 152.507 45.556 150.198C44.7763 152.412 44.8838 154.842 45.856 156.978C46.8307 159.09 48.1732 161.012 49.821 162.654C51.407 164.348 52.764 165.622 54.239 167.413" fill="#3E548D"/>
</g>
<path d="M54.267 272.808C54.167 272.808 54.089 248.933 54.082 219.489C54.075 190.045 54.148 166.165 54.243 166.165C54.338 166.165 54.421 190.034 54.428 219.489C54.435 248.944 54.363 272.808 54.267 272.808Z" fill="#E0E0E0"/>
<path d="M75.131 201.292C74.8423 201.433 74.541 201.545 74.231 201.629L71.761 202.462C69.678 203.172 66.816 204.199 63.711 205.472C60.636 206.791 57.736 207.863 56.084 209.294C55.4248 209.843 54.9006 210.537 54.552 211.321C54.315 211.881 54.273 212.221 54.241 212.221C54.229 212.137 54.2324 212.052 54.251 211.97C54.287 211.732 54.3456 211.497 54.426 211.27C54.7398 210.437 55.2552 209.694 55.926 209.109C56.923 208.266 58.0378 207.574 59.235 207.054C60.559 206.436 62.026 205.791 63.584 205.154C66.699 203.877 69.584 202.883 71.684 202.231C72.737 201.903 73.596 201.661 74.192 201.501C74.4978 201.402 74.8122 201.332 75.131 201.292V201.292Z" fill="#E0E0E0"/>
<path d="M81.97 184.494C81.8973 184.594 81.8126 184.684 81.718 184.763L80.952 185.483L78.092 188.083L68.573 196.559C64.857 199.867 61.646 203.027 59.42 205.407C58.306 206.596 57.428 207.58 56.83 208.268L56.138 209.057C56.063 209.155 55.976 209.243 55.879 209.319C55.9329 209.21 56.0001 209.107 56.079 209.014C56.223 208.822 56.434 208.536 56.721 208.182C57.289 207.467 58.141 206.456 59.235 205.243C62.1085 202.105 65.1461 199.12 68.335 196.303C72.064 193.003 75.457 190.039 77.923 187.903L80.855 185.387L81.664 184.716C81.756 184.629 81.8588 184.554 81.97 184.494V184.494Z" fill="#E0E0E0"/>
<path d="M64.561 199.919C64.461 199.876 65.24 198.084 66.014 195.819C66.788 193.554 67.162 191.64 67.261 191.655C67.1796 193.119 66.8688 194.561 66.34 195.929C66.0084 196.906 65.6228 197.864 65.185 198.798C65.0322 199.2 64.822 199.577 64.561 199.919V199.919Z" fill="#E0E0E0"/>
<path d="M54.29 214.37C54.0769 214.168 53.8849 213.946 53.717 213.705L52.25 211.821C51.018 210.228 49.314 208.03 47.405 205.621C45.496 203.212 43.74 201.057 42.469 199.495L40.969 197.639C40.7728 197.421 40.5995 197.183 40.452 196.93C40.6795 197.115 40.8872 197.324 41.072 197.552C41.454 197.966 41.995 198.576 42.655 199.337C43.975 200.86 45.762 202.996 47.675 205.406C49.588 207.816 51.261 210.04 52.445 211.672C53.037 212.487 53.508 213.153 53.825 213.619C54.0057 213.852 54.1615 214.104 54.29 214.37V214.37Z" fill="#E0E0E0"/>
<path d="M49.715 208.497C48.7922 207.476 48.1339 206.244 47.798 204.909C47.4382 203.739 47.2912 202.514 47.364 201.292L47.516 201.304C47.448 201.58 47.398 201.726 47.371 201.722C47.344 201.718 47.342 201.563 47.365 201.279L47.518 201.291C47.5918 202.484 47.7953 203.665 48.125 204.814C48.562 206.08 49.0935 207.311 49.715 208.497V208.497Z" fill="#E0E0E0"/>
<path d="M43.808 201.068C43.3963 200.753 42.9464 200.492 42.469 200.29C41.2654 199.93 39.9997 199.828 38.754 199.99C37.4926 200.087 36.2414 200.287 35.013 200.59C34.5092 200.749 33.995 200.872 33.474 200.959C33.9324 200.687 34.4289 200.485 34.947 200.359C36.1765 199.98 37.4449 199.741 38.728 199.646C40.0203 199.474 41.3351 199.615 42.561 200.059C43.0812 200.24 43.5221 200.597 43.808 201.068V201.068Z" fill="#E0E0E0"/>
<path d="M42.411 199.266C42.384 199.32 41.631 198.954 40.361 198.52C37.0404 197.383 33.4846 197.112 30.03 197.733C28.708 197.969 27.908 198.217 27.89 198.16C28.0585 198.055 28.2419 197.977 28.434 197.928C28.9403 197.751 29.4574 197.606 29.982 197.494C33.4724 196.73 37.1104 197.008 40.444 198.294C40.9454 198.484 41.4344 198.706 41.908 198.958C42.0903 199.035 42.2599 199.139 42.411 199.266V199.266Z" fill="#E0E0E0"/>
<path d="M54.244 191.653C53.1364 188.223 52.2492 184.725 51.588 181.182C52.1981 182.88 52.6991 184.615 53.088 186.376C53.585 188.109 53.9711 189.871 54.244 191.653V191.653Z" fill="#E0E0E0"/>
<path d="M54.339 191.654C53.8603 190.58 53.3066 189.541 52.682 188.545C51.9807 187.605 51.1613 186.76 50.244 186.029C50.5916 186.114 50.9142 186.28 51.185 186.514C51.8775 187.02 52.4794 187.64 52.965 188.347C53.7064 189.309 54.1804 190.45 54.339 191.654V191.654Z" fill="#E0E0E0"/>
<path d="M54.268 260.08C54.231 260.085 54.161 259.506 53.891 258.492C53.4944 257.065 52.9585 255.681 52.291 254.359C49.9922 250.038 47.1483 246.03 43.829 242.433C41.939 240.274 40.105 238.233 38.549 236.287C37.1531 234.571 35.891 232.751 34.774 230.842C34.0244 229.552 33.3867 228.201 32.868 226.802C32.693 226.302 32.568 225.915 32.494 225.646C32.4455 225.513 32.4119 225.375 32.394 225.234C32.425 225.224 32.594 225.78 32.994 226.753C33.5574 228.123 34.223 229.449 34.985 230.719C36.125 232.598 37.399 234.392 38.797 236.088C40.359 238.018 42.197 240.044 44.089 242.206C47.4309 245.821 50.2649 249.874 52.513 254.253C53.166 255.597 53.671 257.007 54.019 258.46C54.1105 258.856 54.1809 259.257 54.23 259.66C54.2576 259.798 54.2703 259.939 54.268 260.08Z" fill="#E0E0E0"/>
<path d="M73.121 238.789C72.8041 238.995 72.474 239.181 72.133 239.344C71.2397 239.847 70.3832 240.413 69.57 241.038C68.3704 241.973 67.245 242.999 66.204 244.108C65.023 245.356 63.804 246.808 62.564 248.358C60.081 251.474 57.759 254.23 56.364 256.431C55.657 257.522 55.144 258.443 54.808 259.088C54.6493 259.432 54.4675 259.764 54.264 260.083C54.2796 259.985 54.3107 259.891 54.356 259.803C54.429 259.625 54.529 259.358 54.688 259.029C55.1217 258.09 55.6126 257.179 56.158 256.3C58.0447 253.465 60.0927 250.741 62.292 248.141C63.536 246.585 64.768 245.133 65.972 243.886C67.0357 242.775 68.1912 241.756 69.426 240.839C70.2603 240.225 71.1459 239.683 72.073 239.221C72.4 239.057 72.667 238.956 72.844 238.88C72.9311 238.836 73.0245 238.805 73.121 238.789Z" fill="#E0E0E0"/>
<path d="M73.491 245.695C72.8032 245.846 72.1054 245.946 71.403 245.995C69.7253 246.168 68.0671 246.495 66.449 246.971C64.8502 247.491 63.351 248.278 62.015 249.298C60.992 250.088 60.515 250.741 60.463 250.704C60.5363 250.526 60.641 250.363 60.772 250.223C61.0971 249.817 61.4615 249.444 61.86 249.109C63.1825 248.007 64.7049 247.169 66.344 246.642C67.9824 246.153 69.6715 245.854 71.378 245.751C72.0791 245.667 72.7865 245.649 73.491 245.695V245.695Z" fill="#E0E0E0"/>
<path d="M61.071 249.946C60.962 249.884 61.903 248.446 62.633 246.513C63.318 244.562 63.478 242.851 63.602 242.871C63.6543 243.244 63.6424 243.622 63.567 243.991C63.4644 244.891 63.2601 245.777 62.958 246.631C62.6412 247.479 62.2352 248.29 61.747 249.052C61.5735 249.386 61.345 249.688 61.071 249.946V249.946Z" fill="#E0E0E0"/>
<path d="M79.222 220.24C79.1183 220.313 79.0062 220.372 78.888 220.418L77.907 220.864C77.477 221.048 76.955 221.282 76.367 221.592C75.779 221.902 75.088 222.21 74.367 222.64L73.228 223.288C72.828 223.516 72.442 223.788 72.028 224.046C71.188 224.555 70.347 225.183 69.449 225.823C65.602 228.688 62.2465 232.16 59.514 236.103C58.905 237.022 58.306 237.885 57.826 238.742C57.58 239.167 57.326 239.566 57.11 239.969L56.502 241.13C56.096 241.861 55.802 242.56 55.523 243.16C55.244 243.76 55.018 244.287 54.848 244.724L54.436 245.724C54.3947 245.844 54.3389 245.958 54.27 246.064C54.2887 245.939 54.3223 245.818 54.37 245.701C54.463 245.431 54.58 245.093 54.723 244.68C54.873 244.235 55.072 243.696 55.346 243.088C55.62 242.48 55.89 241.768 56.284 241.026L56.876 239.848C57.085 239.44 57.337 239.034 57.576 238.603C58.049 237.734 58.642 236.86 59.25 235.929C61.9738 231.935 65.3574 228.433 69.256 225.574C70.166 224.936 71.019 224.313 71.872 223.81C72.294 223.553 72.691 223.287 73.092 223.065L74.249 222.432C74.978 222.013 75.678 221.713 76.278 221.424C76.878 221.135 77.409 220.912 77.848 220.747L78.857 220.359C78.9733 220.304 79.0959 220.265 79.222 220.24Z" fill="#E0E0E0"/>
<path d="M64.305 230.236C64.4436 229.753 64.7305 229.325 65.125 229.014C66.044 228.216 67.2143 227.768 68.431 227.746C69.6242 227.741 70.8066 227.972 71.91 228.426C72.3776 228.573 72.8208 228.788 73.225 229.065C72.747 228.971 72.2784 228.835 71.825 228.657C70.7344 228.284 69.5897 228.093 68.437 228.091C67.2936 228.116 66.1879 228.504 65.28 229.2C64.9303 229.521 64.6044 229.867 64.305 230.236V230.236Z" fill="#E0E0E0"/>
<path d="M62.076 232.538C63.0765 230.617 63.3356 228.396 62.804 226.296C63.0039 226.556 63.1371 226.861 63.192 227.185C63.5969 228.723 63.4062 230.358 62.658 231.762C62.366 232.289 62.108 232.558 62.076 232.538Z" fill="#E0E0E0"/>
<path opacity="0.31" d="M37.778 263.501C38.292 272.625 41.042 281.901 45.271 291.286H63.661C67.694 281.997 70.253 272.732 70.708 263.501H37.778Z" fill="#3E548D"/>
<path d="M67.728 278.265C67.728 278.365 61.673 278.437 54.206 278.437C46.739 278.437 40.682 278.36 40.682 278.265C40.682 278.17 46.736 278.093 54.206 278.093C61.676 278.093 67.728 278.17 67.728 278.265Z" fill="#FAFAFA"/>
<path d="M67.317 281.57C67.317 281.67 61.641 281.743 54.64 281.743C47.639 281.743 41.962 281.666 41.962 281.57C41.962 281.474 47.637 281.398 54.64 281.398C61.643 281.398 67.317 281.475 67.317 281.57Z" fill="#FAFAFA"/>
<path d="M45.567 269.492C45.7977 272.311 45.7977 275.144 45.567 277.963C45.3372 275.144 45.3372 272.311 45.567 269.492V269.492Z" fill="#FAFAFA"/>
<path d="M55.42 269.492C55.6508 272.412 55.6508 275.345 55.42 278.265C55.1902 275.345 55.1902 272.412 55.42 269.492V269.492Z" fill="#FAFAFA"/>
<path d="M64.671 269.418C64.9008 272.396 64.9008 275.388 64.671 278.366C64.4403 275.388 64.4403 272.396 64.671 269.418V269.418Z" fill="#FAFAFA"/>
<path d="M70.125 269.492C70.125 269.592 63.025 269.664 54.265 269.664C45.505 269.664 38.403 269.587 38.403 269.492C38.403 269.397 45.503 269.319 54.265 269.319C63.027 269.319 70.125 269.396 70.125 269.492Z" fill="#FAFAFA"/>
<path d="M256.817 262.818C253.87 259.339 253.478 253.754 253.911 249.218C254.344 244.682 255.397 240.111 254.682 235.608C254.257 232.94 253.222 230.393 252.873 227.715C252.524 225.037 253.019 222.008 255.095 220.278C257.48 218.291 261.237 218.76 263.718 220.626C266.199 222.492 267.637 225.426 268.688 228.344C270.997 234.763 271.843 241.88 269.947 248.432C268.051 254.984 263.601 260.843 257.074 262.82" fill="#3E548D"/>
<path d="M272.472 270.723C272.672 269.87 273.055 269.071 273.595 268.381C274.135 267.692 274.819 267.128 275.599 266.729C277.346 266.162 279.242 266.273 280.91 267.04C282.56 267.806 284.311 268.332 286.11 268.603C287.925 268.715 289.973 267.855 290.516 266.12C291.027 264.489 290.043 262.75 288.816 261.564C287.516 260.313 285.921 259.408 284.18 258.935C282.438 258.462 280.605 258.435 278.85 258.856C277.095 259.277 275.475 260.134 274.138 261.346C272.801 262.558 271.791 264.088 271.2 265.793" fill="#3E548D"/>
<g opacity="0.3">
<path opacity="0.3" d="M272.472 270.723C272.672 269.87 273.055 269.071 273.595 268.381C274.135 267.692 274.819 267.128 275.599 266.729C277.346 266.162 279.242 266.273 280.91 267.04C282.56 267.806 284.311 268.332 286.11 268.603C287.925 268.715 289.973 267.855 290.516 266.12C291.027 264.489 290.043 262.75 288.816 261.564C287.516 260.313 285.921 259.408 284.18 258.935C282.438 258.462 280.605 258.435 278.85 258.856C277.095 259.277 275.475 260.134 274.138 261.346C272.801 262.558 271.791 264.088 271.2 265.793" fill="black"/>
</g>
<path d="M258.099 278.013C255.437 275.484 255.57 271.082 256.899 267.658C258.389 264.263 261.033 261.505 264.362 259.874C267.522 258.214 271.018 257.292 274.585 257.176C278.153 257.061 281.701 257.755 284.962 259.206C283.365 259.275 281.81 259.734 280.431 260.543C279.053 261.353 277.894 262.487 277.056 263.848C275.597 266.271 275.273 269.211 274.068 271.77C272.709 274.655 270.297 276.909 267.327 278.07C264.357 279.231 261.055 279.21 258.1 278.012" fill="#3E548D"/>
<path d="M255.403 291.363C255.383 291.231 255.376 291.097 255.384 290.963C255.384 290.7 255.379 290.312 255.398 289.813C255.431 288.813 255.522 287.37 255.742 285.596C256.001 283.518 256.377 281.457 256.867 279.421C257.477 276.919 258.425 274.512 259.684 272.266C261.987 268.18 265.224 264.697 269.129 262.1C269.866 261.592 270.58 261.207 271.195 260.85C271.826 260.522 272.376 260.25 272.826 260.038L273.89 259.599C274.011 259.541 274.138 259.497 274.269 259.466C274.159 259.543 274.04 259.608 273.916 259.659L272.88 260.152C272.44 260.384 271.901 260.668 271.28 261.008C270.68 261.378 269.98 261.773 269.253 262.29C265.428 264.918 262.253 268.384 259.971 272.425C257.266 277.157 256.519 282.135 255.971 285.625C255.723 287.388 255.596 288.825 255.525 289.817C255.494 290.287 255.469 290.667 255.45 290.963C255.449 291.098 255.434 291.232 255.403 291.363V291.363Z" fill="#263238"/>
<path d="M229.788 253.182C224.335 256.472 224.352 259.467 225.263 262.293C226.174 265.119 229.521 267.083 232.295 266.025C233.82 265.299 235.098 264.14 235.97 262.693C236.835 261.251 237.93 259.961 239.212 258.873C239.864 258.34 240.663 258.018 241.502 257.949C242.341 257.88 243.182 258.068 243.912 258.488" fill="#3E548D"/>
<g opacity="0.3">
<path opacity="0.3" d="M229.788 253.182C224.335 256.472 224.352 259.467 225.263 262.293C226.174 265.119 229.521 267.083 232.295 266.025C233.82 265.299 235.098 264.14 235.97 262.693C236.835 261.251 237.93 259.961 239.212 258.873C239.864 258.34 240.663 258.018 241.502 257.949C242.341 257.88 243.182 258.068 243.912 258.488" fill="black"/>
</g>
<path d="M225.706 256.786C227.132 254.816 230.654 254.246 232.879 255.228C235.104 256.21 236.732 258.161 238.19 260.107C239.648 262.053 241.068 264.107 243.09 265.462C245.112 266.817 247.932 267.306 249.945 265.942C250.587 265.463 251.124 264.859 251.524 264.166C251.925 263.473 252.179 262.705 252.273 261.91C252.451 260.319 252.343 258.708 251.953 257.155C251.472 254.868 250.686 252.48 248.853 251.027C246.813 249.407 243.983 249.327 241.38 249.416C238.386 249.394 235.407 249.852 232.558 250.773C229.585 251.82 227.13 253.974 225.704 256.785" fill="#3E548D"/>
<path d="M250.678 291.082C250.65 290.927 250.636 290.769 250.637 290.611C250.623 290.27 250.605 289.82 250.582 289.258C250.544 288.047 250.491 286.358 250.426 284.281C250.356 282.181 250.267 279.681 250.114 276.905C249.961 274.129 249.749 271.083 249.329 267.911C249.152 266.368 248.851 264.842 248.429 263.348C247.996 261.969 247.439 260.633 246.763 259.355C245.638 257.175 244.15 255.203 242.363 253.522C241.15 252.4 239.779 251.46 238.295 250.733C237.893 250.532 237.48 250.352 237.059 250.193C236.91 250.142 236.765 250.078 236.627 250.001C236.782 250.03 236.934 250.074 237.081 250.132C237.514 250.265 237.937 250.428 238.348 250.618C239.871 251.309 241.277 252.232 242.518 253.353C244.349 255.031 245.874 257.015 247.024 259.216C247.718 260.506 248.291 261.857 248.735 263.253C249.167 264.763 249.474 266.307 249.654 267.867C250.077 271.056 250.274 274.111 250.416 276.889C250.558 279.667 250.616 282.172 250.658 284.274C250.7 286.376 250.709 288.074 250.711 289.254C250.711 289.818 250.711 290.268 250.705 290.609C250.71 290.767 250.701 290.925 250.678 291.082V291.082Z" fill="#263238"/>
<path d="M253.105 291.083C253.079 291.035 253.059 290.984 253.047 290.931L252.907 290.473C252.735 289.884 252.593 289.286 252.482 288.682C252.09 286.455 251.949 284.191 252.059 281.933C252.195 278.58 252.745 275.257 253.697 272.039C254.79 268.419 256.344 264.566 257.718 260.445C259.042 256.582 259.897 252.573 260.264 248.506C260.543 245.18 260.62 241.841 260.494 238.506C260.405 235.657 260.259 233.354 260.169 231.762C260.126 230.985 260.092 230.373 260.069 229.927C260.061 229.733 260.055 229.576 260.051 229.45C260.044 229.396 260.044 229.341 260.051 229.287C260.068 229.339 260.077 229.393 260.08 229.448C260.093 229.575 260.11 229.731 260.131 229.923C260.17 230.367 260.224 230.978 260.293 231.753C260.421 233.343 260.603 235.646 260.721 238.498C260.881 241.841 260.827 245.191 260.56 248.528C260.208 252.621 259.356 256.656 258.024 260.542C256.645 264.678 255.084 268.523 253.981 272.122C253.023 275.314 252.455 278.61 252.287 281.938C252.158 284.182 252.265 286.433 252.606 288.654C252.742 289.438 252.861 290.045 252.97 290.454L253.078 290.919C253.095 290.972 253.104 291.027 253.105 291.083V291.083Z" fill="#263238"/>
<path d="M95.18 205.847H73.961C73.6514 205.847 73.3448 205.786 73.0587 205.668C72.7726 205.549 72.5127 205.376 72.2937 205.157C72.0747 204.938 71.901 204.678 71.7825 204.392C71.664 204.106 71.603 203.8 71.603 203.49V203.49C71.603 202.865 71.8514 202.265 72.2937 201.823C72.7359 201.38 73.3356 201.132 73.961 201.132H95.18C95.8054 201.132 96.4052 201.38 96.8474 201.823C97.2896 202.265 97.538 202.865 97.538 203.49V203.49C97.538 203.8 97.477 204.106 97.3585 204.392C97.24 204.678 97.0663 204.938 96.8473 205.157C96.6283 205.376 96.3684 205.549 96.0823 205.668C95.7962 205.786 95.4896 205.847 95.18 205.847V205.847Z" fill="#263238"/>
<path d="M95.756 204.565H64.533C59.5823 204.565 55.569 208.578 55.569 213.529V273.921C55.569 278.872 59.5823 282.885 64.533 282.885H95.756C100.707 282.885 104.72 278.872 104.72 273.921V213.529C104.72 208.578 100.707 204.565 95.756 204.565Z" fill="#4CCB9E"/>
<g opacity="0.3">
<path opacity="0.3" d="M95.756 204.565H64.533C59.5823 204.565 55.569 208.578 55.569 213.529V273.921C55.569 278.872 59.5823 282.885 64.533 282.885H95.756C100.707 282.885 104.72 278.872 104.72 273.921V213.529C104.72 208.578 100.707 204.565 95.756 204.565Z" fill="black"/>
</g>
<path d="M107.427 204.565H76.204C71.2533 204.565 67.24 208.578 67.24 213.529V273.921C67.24 278.872 71.2533 282.885 76.204 282.885H107.427C112.378 282.885 116.391 278.872 116.391 273.921V213.529C116.391 208.578 112.378 204.565 107.427 204.565Z" fill="#4CCB9E"/>
<path d="M115.974 269.794C115.974 269.894 105.022 269.972 91.514 269.972C78.006 269.972 67.052 269.893 67.052 269.794C67.052 269.695 78.002 269.615 91.514 269.615C105.026 269.615 115.974 269.695 115.974 269.794Z" fill="#263238"/>
<path d="M115.974 258.999C115.974 259.099 105.022 259.178 91.514 259.178C78.006 259.178 67.052 259.098 67.052 258.999C67.052 258.9 78.002 258.821 91.514 258.821C105.026 258.821 115.974 258.9 115.974 258.999Z" fill="#263238"/>
<path d="M115.974 248.204C115.974 248.304 105.022 248.383 91.514 248.383C78.006 248.383 67.052 248.303 67.052 248.204C67.052 248.105 78.002 248.026 91.514 248.026C105.026 248.026 115.974 248.106 115.974 248.204Z" fill="#263238"/>
<path d="M115.974 237.405C115.974 237.505 105.022 237.583 91.514 237.583C78.006 237.583 67.052 237.504 67.052 237.405C67.052 237.306 78.002 237.227 91.514 237.227C105.026 237.227 115.974 237.31 115.974 237.405Z" fill="#263238"/>
<path d="M115.974 226.614C115.974 226.714 105.022 226.793 91.514 226.793C78.006 226.793 67.052 226.713 67.052 226.614C67.052 226.515 78.002 226.436 91.514 226.436C105.026 226.436 115.974 226.516 115.974 226.614Z" fill="#263238"/>
<path d="M115.974 215.819C115.974 215.919 105.022 215.997 91.514 215.997C78.006 215.997 67.052 215.917 67.052 215.819C67.052 215.721 78.002 215.641 91.514 215.641C105.026 215.641 115.974 215.721 115.974 215.819Z" fill="#263238"/>
<path d="M108.242 287.124C108.242 287.962 107.993 288.782 107.528 289.479C107.062 290.176 106.4 290.719 105.625 291.04C104.851 291.361 103.998 291.445 103.176 291.282C102.354 291.118 101.598 290.714 101.006 290.121C100.413 289.529 100.009 288.773 99.8455 287.951C99.6819 287.129 99.7658 286.276 100.087 285.502C100.408 284.727 100.951 284.065 101.648 283.599C102.345 283.134 103.165 282.885 104.003 282.885C105.127 282.885 106.205 283.332 107 284.127C107.795 284.922 108.242 286 108.242 287.124Z" fill="#263238"/>
<path d="M111.193 287.124C111.193 287.962 110.944 288.782 110.479 289.479C110.013 290.176 109.351 290.719 108.576 291.04C107.802 291.361 106.95 291.445 106.127 291.282C105.305 291.118 104.55 290.714 103.957 290.122C103.364 289.529 102.96 288.774 102.797 287.952C102.633 287.129 102.717 286.277 103.037 285.502C103.358 284.728 103.901 284.066 104.598 283.6C105.295 283.134 106.115 282.885 106.953 282.885C108.077 282.885 109.156 283.332 109.951 284.126C110.746 284.921 111.193 286 111.193 287.124V287.124Z" fill="#455A64"/>
<path d="M74.514 287.124C74.514 287.962 74.2654 288.782 73.7996 289.479C73.3338 290.176 72.6718 290.719 71.8972 291.04C71.1226 291.361 70.2703 291.445 69.448 291.282C68.6257 291.118 67.8704 290.714 67.2776 290.121C66.6847 289.529 66.281 288.773 66.1175 287.951C65.9539 287.129 66.0378 286.276 66.3587 285.502C66.6795 284.727 67.2228 284.065 67.9199 283.599C68.617 283.134 69.4366 282.885 70.275 282.885C71.3992 282.885 72.4772 283.332 73.2721 284.127C74.0671 284.922 74.5137 286 74.514 287.124V287.124Z" fill="#263238"/>
<path d="M77.465 287.124C77.465 287.962 77.2164 288.782 76.7506 289.479C76.2848 290.176 75.6228 290.719 74.8482 291.04C74.0736 291.361 73.2213 291.445 72.399 291.282C71.5767 291.118 70.8214 290.714 70.2286 290.121C69.6358 289.529 69.232 288.773 69.0685 287.951C68.9049 287.129 68.9888 286.276 69.3097 285.502C69.6305 284.727 70.1738 284.065 70.8709 283.599C71.568 283.134 72.3876 282.885 73.226 282.885C74.3503 282.885 75.4285 283.332 76.2234 284.127C77.0184 284.922 77.465 286 77.465 287.124V287.124Z" fill="#455A64"/>
<path d="M63.716 229.244C63.716 227.791 62.5385 226.614 61.086 226.614C59.6335 226.614 58.456 227.791 58.456 229.244V251.962C58.456 253.414 59.6335 254.592 61.086 254.592C62.5385 254.592 63.716 253.414 63.716 251.962V229.244Z" fill="#263238"/>
<path d="M62.106 282.181C62.0452 282.146 61.9885 282.105 61.937 282.058L61.462 281.667C60.8895 281.119 60.3991 280.492 60.006 279.804C58.931 278.024 58.296 275.015 58.317 271.35C58.442 264.025 58.727 253.923 59.017 242.76C59.341 231.605 59.635 221.509 59.847 214.172C59.832 212.518 59.977 210.866 60.28 209.24C60.5328 208.001 61.1093 206.851 61.951 205.907C62.4814 205.311 63.1509 204.855 63.9 204.581C64.1585 204.484 64.4296 204.424 64.705 204.404C64.705 204.425 64.424 204.455 63.925 204.649C63.2028 204.945 62.5613 205.409 62.053 206.001C61.2493 206.939 60.7049 208.071 60.474 209.285C60.1944 210.901 60.0685 212.54 60.098 214.18C59.912 221.518 59.655 231.615 59.372 242.771C59.057 253.921 58.772 264.015 58.563 271.351C58.511 274.997 59.101 277.965 60.121 279.738C60.6362 280.661 61.3078 281.488 62.106 282.181V282.181Z" fill="#263238"/>
<path d="M146.336 152.211L136.999 158.266L136.15 167.702C136.15 167.702 138.898 168.985 142.928 165.32C146.958 161.655 152.209 154.225 152.209 154.225L146.336 152.211Z" fill="#FFBE9D"/>
<path d="M145.922 156.086L142.862 140.569L134.7 143.801L136.786 164.238L145.922 156.086Z" fill="#FFBE9D"/>
<path d="M168.042 136.444C167.983 136.281 167.882 136.137 167.751 136.025C167.619 135.913 167.46 135.836 167.29 135.804L161.423 134.671C161.167 134.626 160.905 134.635 160.653 134.698C160.401 134.762 160.165 134.877 159.961 135.038L142.244 148.976L142.969 149.776L149.234 151.686L168.145 136.717L168.042 136.444Z" fill="#263238"/>
<path d="M163.285 137.42C163.306 137.506 163.353 137.583 163.421 137.641C163.488 137.698 163.572 137.733 163.66 137.741C163.748 137.748 163.836 137.727 163.912 137.682C163.988 137.636 164.048 137.568 164.083 137.486C164.118 137.405 164.126 137.315 164.107 137.228C164.088 137.142 164.042 137.064 163.976 137.005C163.91 136.946 163.827 136.909 163.739 136.9C163.651 136.891 163.562 136.91 163.485 136.954C163.398 136.991 163.328 137.06 163.291 137.147C163.254 137.234 163.251 137.332 163.285 137.42V137.42Z" fill="white"/>
<path d="M168.145 136.722C167.756 136.702 167.369 136.651 166.988 136.569L163.861 136.02L161.705 135.62C161.527 135.576 161.34 135.572 161.16 135.61C160.98 135.647 160.811 135.724 160.665 135.836L159.653 136.636L155.124 140.209C151.904 142.737 148.976 145.009 146.847 146.64L144.313 148.556C144.011 148.803 143.691 149.025 143.354 149.221C143.624 148.94 143.916 148.681 144.227 148.447L146.691 146.441C148.781 144.76 151.683 142.456 154.903 139.929L159.449 136.378L160.476 135.578C160.657 135.444 160.865 135.351 161.086 135.307C161.307 135.263 161.534 135.267 161.753 135.321L163.904 135.76L167.014 136.421C167.398 136.491 167.777 136.592 168.145 136.722V136.722Z" fill="#455A64"/>
<path d="M159.754 141.007C159.754 141.007 159.285 140.747 158.547 142.021C157.809 143.295 155.596 146.916 155.596 146.916L153.45 144.636L150.031 143.95C150.031 143.95 149.092 144.368 149.494 144.904C150.212 145.53 151 146.069 151.842 146.513L152.622 149.226L148.958 145.626C148.958 145.626 147.367 145.511 147.492 146.549C148.059 148.219 148.772 149.837 149.623 151.382L147.484 150.47L145.412 147.998C145.412 147.998 144.599 147.763 144.666 148.547C145.189 149.992 145.84 151.388 146.611 152.717L149.36 155.433C149.36 155.433 151.205 155.902 151.56 155.433C151.819 155.055 152.037 154.65 152.211 154.226C152.211 154.226 153.252 154.293 153.587 153.89C153.824 153.536 153.984 153.137 154.057 152.717C154.057 152.717 155.465 153.489 155.934 152.717C156.42 151.722 156.737 150.654 156.873 149.555C156.94 148.861 159.756 143.162 159.756 142.96C159.756 142.758 160.828 140.931 159.754 141.007Z" fill="#FFBE9D"/>
<path d="M151.67 155.483C151.357 155.554 151.03 155.546 150.721 155.458C149.19 155.172 147.826 154.314 146.905 153.058C146.563 152.577 146.433 152.234 146.471 152.213C147.752 153.895 149.6 155.056 151.671 155.481L151.67 155.483Z" fill="#EB996E"/>
<path d="M151.292 154.037C151.215 154.096 150.735 153.592 150.287 152.869C149.965 152.458 149.758 151.968 149.687 151.451C149.776 151.406 150.152 151.974 150.593 152.681C151.034 153.388 151.372 153.973 151.292 154.037Z" fill="#EB996E"/>
<path d="M153.987 151.781C153.911 151.84 153.434 151.345 153.034 150.606C152.74 150.183 152.577 149.682 152.567 149.167C152.667 149.132 152.959 149.725 153.347 150.436C153.735 151.147 154.067 151.72 153.987 151.781Z" fill="#EB996E"/>
<path d="M156.586 150.11C156.253 149.058 155.898 148.013 155.52 146.976C155.92 147.386 156.223 147.88 156.407 148.423C156.591 148.965 156.653 149.541 156.586 150.11Z" fill="#EB996E"/>
<path d="M115.249 78.847C115.677 77.1525 116.608 75.6275 117.92 74.4731C119.232 73.3186 120.863 72.5891 122.598 72.3806C124.333 72.1721 126.091 72.4945 127.639 73.3053C129.187 74.116 130.453 75.377 131.27 76.922C132.797 79.811 132.77 83.654 135.304 85.722C137.042 87.138 139.567 87.298 141.264 88.762C144.858 91.862 142.774 98.755 146.584 101.588C144.199 103.53 141.39 104.883 138.384 105.537C138.165 104.512 137.651 103.574 136.906 102.837C137.148 103.737 137.103 104.689 136.779 105.562C136.455 106.435 135.867 107.186 135.097 107.71C133.532 108.727 131.752 109.363 129.897 109.568C125.491 110.356 120.932 110.8 116.561 109.835C112.19 108.87 107.996 106.317 105.934 102.344C105.519 101.287 104.921 100.311 104.167 99.462C103.155 98.7576 102.038 98.2175 100.857 97.862C99.3178 97.1468 98.0251 95.9915 97.1423 94.5419C96.2595 93.0924 95.8261 91.4137 95.897 89.718C98.797 89.536 100.778 86.746 101.946 84.089C103.114 81.432 104.054 78.436 106.435 76.777C107.228 76.2241 108.137 75.8595 109.093 75.7109C110.048 75.5623 111.025 75.6337 111.948 75.9196C112.872 76.2056 113.718 76.6985 114.423 77.3609C115.127 78.0232 115.671 78.8376 116.013 79.742" fill="#263238"/>
<path d="M108.419 85.2L108.295 82.766L122.837 79.53C127.337 78.913 132.351 83.282 132.776 87.8C133.249 92.819 133.628 98.966 133.149 102.737C132.185 110.32 126.431 111.459 126.431 111.459L126.631 120.682L109.969 120.082L108.419 85.2Z" fill="#FFBE9D"/>
<path d="M130.772 93.401C130.781 93.6519 130.692 93.8965 130.524 94.0832C130.356 94.2698 130.122 94.3838 129.872 94.401C129.749 94.4147 129.625 94.4036 129.507 94.3685C129.388 94.3334 129.278 94.2749 129.183 94.1965C129.087 94.1181 129.008 94.0214 128.951 93.9121C128.893 93.8028 128.858 93.6831 128.848 93.56C128.838 93.3082 128.926 93.0623 129.094 92.8745C129.262 92.6867 129.497 92.5717 129.748 92.554C129.871 92.5406 129.996 92.5521 130.114 92.5877C130.233 92.6233 130.343 92.6823 130.439 92.7613C130.534 92.8402 130.613 92.9375 130.67 93.0474C130.727 93.1573 130.762 93.2775 130.772 93.401Z" fill="#263238"/>
<path d="M131.28 91.055C131.164 91.184 130.414 90.665 129.372 90.7C128.332 90.72 127.584 91.279 127.472 91.156C127.415 91.101 127.53 90.869 127.855 90.617C128.296 90.2904 128.827 90.1084 129.376 90.096C129.918 90.0768 130.451 90.231 130.899 90.536C131.222 90.771 131.338 90.996 131.28 91.055Z" fill="#263238"/>
<path d="M121.073 93.847C121.083 94.0987 120.995 94.3444 120.827 94.5321C120.659 94.7198 120.424 94.8345 120.173 94.852C120.05 94.8656 119.926 94.8546 119.807 94.8195C119.689 94.7844 119.579 94.7259 119.483 94.6475C119.388 94.5692 119.309 94.4725 119.251 94.3632C119.194 94.2538 119.159 94.1341 119.148 94.011C119.138 93.7591 119.226 93.5131 119.394 93.3252C119.562 93.1374 119.797 93.0225 120.048 93.005C120.171 92.9913 120.295 93.0024 120.414 93.0376C120.532 93.0728 120.643 93.1313 120.738 93.2098C120.834 93.2883 120.912 93.3851 120.97 93.4945C121.028 93.604 121.063 93.7238 121.073 93.847Z" fill="#263238"/>
<path d="M121.05 91.567C120.934 91.697 120.183 91.177 119.142 91.212C118.101 91.247 117.354 91.792 117.242 91.668C117.185 91.613 117.299 91.382 117.626 91.129C118.067 90.8027 118.598 90.6207 119.146 90.608C119.687 90.5895 120.221 90.7436 120.669 91.048C120.991 91.283 121.107 91.508 121.05 91.567Z" fill="#263238"/>
<path d="M125.065 99.172C125.609 98.9829 126.174 98.8626 126.747 98.814C127.012 98.778 127.262 98.714 127.302 98.535C127.316 98.2601 127.246 97.9873 127.102 97.753C126.835 97.117 126.552 96.4503 126.253 95.753C125.47 94.0603 124.825 92.3073 124.323 90.511C125.24 92.1369 126.025 93.8336 126.671 95.585C126.956 96.2876 127.228 96.959 127.488 97.599C127.665 97.9147 127.725 98.2824 127.658 98.638C127.622 98.7324 127.565 98.8174 127.491 98.8867C127.418 98.956 127.329 99.0077 127.233 99.038C127.087 99.0821 126.936 99.108 126.784 99.115C126.216 99.2068 125.638 99.2259 125.065 99.172Z" fill="#263238"/>
<path d="M126.429 111.479C122.794 111.648 119.182 110.822 115.982 109.09C115.982 109.09 118.695 114.29 126.482 113.361L126.429 111.479Z" fill="#EB996E"/>
<path d="M124.709 101.696C124.504 101.453 124.24 101.267 123.942 101.154C123.645 101.041 123.324 101.006 123.009 101.051C122.78 101.079 122.558 101.153 122.358 101.268C122.158 101.384 121.984 101.538 121.845 101.723C121.711 101.901 121.635 102.116 121.627 102.338C121.619 102.561 121.68 102.78 121.801 102.967C121.974 103.148 122.198 103.274 122.443 103.327C122.688 103.381 122.944 103.36 123.177 103.267C123.663 103.077 124.107 102.793 124.483 102.431C124.598 102.344 124.696 102.237 124.771 102.114C124.807 102.055 124.825 101.987 124.823 101.918C124.82 101.849 124.797 101.783 124.757 101.727" fill="#EB996E"/>
<path d="M122.026 99.987C122.195 99.972 122.232 101.102 123.226 101.874C124.22 102.646 125.418 102.485 125.431 102.643C125.449 102.713 125.17 102.871 124.661 102.9C123.999 102.93 123.348 102.726 122.822 102.323C122.317 101.936 121.983 101.367 121.889 100.738C121.831 100.267 121.948 99.983 122.026 99.987Z" fill="#263238"/>
<path d="M121.195 88.619C121.101 88.906 120.057 88.803 118.84 88.988C117.619 89.149 116.645 89.537 116.475 89.288C116.399 89.168 116.563 88.897 116.952 88.61C117.474 88.2572 118.069 88.0279 118.693 87.9395C119.317 87.8512 119.953 87.9061 120.552 88.1C120.995 88.268 121.233 88.483 121.195 88.619Z" fill="#263238"/>
<path d="M131.138 87.485C130.962 87.727 130.238 87.503 129.374 87.519C128.511 87.504 127.786 87.727 127.61 87.485C127.533 87.367 127.641 87.127 127.953 86.893C128.374 86.6113 128.868 86.4608 129.374 86.4608C129.881 86.4608 130.375 86.6113 130.796 86.893C131.107 87.127 131.215 87.367 131.138 87.485Z" fill="#263238"/>
<path d="M122.613 79.85C122.509 81.436 121.936 82.9555 120.968 84.216C120 85.4766 118.68 86.4214 117.174 86.931C115.969 87.315 114.448 87.597 114.058 88.801C113.658 90.048 114.817 91.19 115.364 92.38C115.689 93.1196 115.788 93.9385 115.65 94.7344C115.512 95.5303 115.143 96.2679 114.588 96.855C113.949 97.508 113.098 97.932 112.494 98.619C112.107 99.0878 111.831 99.6375 111.684 100.228C111.538 100.818 111.527 101.433 111.65 102.028C111.911 103.221 112.54 104.303 113.45 105.118C110.597 105.281 107.466 103.829 106.537 101.126C106.134 99.4658 106.119 97.7348 106.494 96.068C107.006 92.2195 107.164 88.3323 106.966 84.455C106.859 83.8006 106.968 83.1293 107.276 82.542C107.703 82.0492 108.282 81.7122 108.922 81.584C112.947 80.3291 117.051 79.343 121.207 78.632" fill="#263238"/>
<path d="M120.921 78.754C121.638 80.2405 122.583 81.6059 123.721 82.801C124.297 83.394 125.002 83.8458 125.781 84.1213C126.56 84.3968 127.393 84.4884 128.213 84.389L127.338 82.917C129.641 85.2842 132.411 87.146 135.473 88.384C133.966 85.552 132.408 82.654 129.998 80.536C127.588 78.418 124.107 77.211 121.105 78.342" fill="#263238"/>
<path d="M127.565 117.706L108.97 116.276L112.093 126.122L128.001 131.422L130.111 127.851L127.565 117.706Z" fill="#FFBE9D"/>
<path d="M92.269 133.695C90.0397 132.974 87.6778 132.759 85.3549 133.065C83.032 133.371 80.8064 134.19 78.8398 135.464C76.8733 136.738 75.2151 138.433 73.9858 140.428C72.7565 142.422 71.9869 144.666 71.733 146.995C71.242 151.509 72.705 156.106 71.933 160.581C71.364 163.874 69.621 166.855 68.848 170.108C67.182 177.119 70.521 184.859 76.399 189.028C82.277 193.197 90.267 193.894 97.053 191.472L104.026 180.509L99.406 138.455L92.268 133.693" fill="#455A64"/>
<path d="M103.408 163.483C103.408 163.483 101.819 172.024 102.773 173.316C103.402 174.108 104.313 174.628 105.315 174.767L136.15 172.383L137.171 155.412C137.171 155.412 140.281 143.776 138.85 138.849C137.419 133.922 131.284 118.824 131.284 118.824L126.561 117.411C126.561 117.411 126.561 122.337 124.817 122.655C123.073 122.973 114.679 123.026 110.559 117.712L108.97 116.282L100.176 122.688L104.201 157.445L103.408 163.483Z" fill="#4CCB9E"/>
<path d="M89.504 133.085C89.504 133.085 95.25 124.463 97.551 122.028C101.17 118.198 106.276 116.637 107.503 117.347C109.182 118.318 117.578 127.056 118.25 132.953C118.922 138.85 118.25 153.482 118.25 153.482L111.157 155.618L111.072 148.548L109.898 131.166C109.898 131.166 106.988 122.991 100.177 122.68C100.177 122.68 93.059 128.664 92.8 134.425L89.504 133.085Z" fill="#455A64"/>
<path d="M106.038 165.643L91.815 178.621L95.573 183.633C95.573 183.633 112.873 172.607 114.679 161.618L106.038 165.643Z" fill="#455A64"/>
<path d="M88.047 192.866C87.3179 192.463 86.6314 191.988 85.998 191.447C84.2438 189.985 82.8045 188.182 81.767 186.147C81.0474 184.745 80.504 183.26 80.149 181.725C79.7752 179.959 79.5832 178.159 79.576 176.353C79.6313 172.231 80.0618 168.123 80.862 164.08C81.6572 160.055 82.136 155.974 82.294 151.875C82.3229 150.089 82.1967 148.305 81.917 146.541C81.646 144.885 81.298 143.349 81.123 141.918C80.9312 140.63 80.9289 139.321 81.116 138.033C81.2635 137.059 81.5803 136.117 82.052 135.252C82.3494 134.706 82.7341 134.212 83.191 133.79C83.3465 133.64 83.5171 133.506 83.7 133.39C83.0813 133.936 82.5646 134.588 82.174 135.315C81.7336 136.175 81.4425 137.103 81.313 138.06C81.15 139.33 81.1702 140.617 81.373 141.882C81.562 143.296 81.923 144.823 82.209 146.49C82.505 148.269 82.6436 150.071 82.623 151.874C82.4844 155.993 82.0135 160.094 81.215 164.137C80.4181 168.16 79.98 172.246 79.906 176.347C79.9047 178.131 80.0836 179.91 80.44 181.658C80.7786 183.173 81.3004 184.642 81.994 186.031C83.0017 188.051 84.3945 189.854 86.094 191.339C86.389 191.608 86.669 191.825 86.913 192.013C87.157 192.201 87.363 192.36 87.537 192.478L87.927 192.757C88.007 192.825 88.051 192.861 88.047 192.866Z" fill="#263238"/>
<path d="M81.435 160.128C79.8031 160.305 78.1605 160.365 76.52 160.306C74.8789 160.365 73.2356 160.305 71.603 160.128C73.2355 159.95 74.8788 159.89 76.52 159.949C78.1605 159.89 79.8031 159.95 81.435 160.128V160.128Z" fill="#263238"/>
<path d="M131.284 118.819C131.284 118.819 136.822 121.299 138.727 124.436C140.632 127.573 145.785 145.519 145.785 145.519L138.534 146.955L131.284 118.819Z" fill="#4CCB9E"/>
<path d="M135.301 144.722C135.301 144.722 133.629 128.322 132.931 127.254C132.233 126.186 131.108 118.195 127.566 117.707C129.621 118.181 131.601 118.936 133.45 119.949C135.603 121.331 137.95 128.785 137.95 128.785L139.308 141.785L135.301 144.722Z" fill="#455A64"/>
<path d="M91.108 130.354C90.8338 129.949 90.4878 129.598 90.087 129.318C89.6434 129.045 89.1376 128.888 88.617 128.864C87.9791 128.849 87.3494 129.011 86.797 129.33C85.7855 129.947 84.9978 130.871 84.549 131.968C84.176 132.806 84.028 133.368 83.972 133.352C83.99 132.841 84.1069 132.338 84.316 131.872C84.7245 130.679 85.5412 129.669 86.622 129.02C87.2324 128.668 87.9315 128.501 88.635 128.538C89.2082 128.579 89.7589 128.778 90.227 129.111C90.4527 129.245 90.6478 129.425 90.7996 129.639C90.9514 129.853 91.0564 130.097 91.108 130.354V130.354Z" fill="#263238"/>
<path d="M109.898 131.169C109.727 130.871 109.58 130.561 109.457 130.24C109.388 130.085 109.314 129.916 109.234 129.735L108.917 129.156L108.552 128.488L108.073 127.777C107.267 126.602 106.258 125.579 105.093 124.757C103.637 123.72 101.943 123.066 100.167 122.857H100.15C98.8234 122.816 97.5204 123.214 96.443 123.989L96.479 123.958L96.347 124.115C93.6196 127.328 91.1669 130.764 89.015 134.387C88.189 135.778 87.557 136.926 87.127 137.723L86.627 138.64C86.576 138.751 86.5108 138.855 86.433 138.95C86.461 138.831 86.5044 138.717 86.562 138.609C86.662 138.391 86.801 138.068 87.001 137.661C87.394 136.843 87.993 135.674 88.794 134.261C90.8924 130.583 93.3293 127.109 96.073 123.884L96.206 123.727L96.222 123.708L96.241 123.696C96.8386 123.31 97.4806 122.998 98.153 122.766C98.8071 122.526 99.5075 122.441 100.2 122.516H100.183C102.02 122.735 103.77 123.424 105.264 124.516C106.444 125.371 107.458 126.435 108.254 127.656L108.72 128.391L109.068 129.079L109.368 129.679L109.568 130.2C109.703 130.514 109.813 130.838 109.898 131.169V131.169Z" fill="#263238"/>
<path d="M103.902 171.946C103.41 172.423 102.864 172.84 102.275 173.19C99.506 175.008 96.4329 176.315 93.202 177.047C92.5411 177.229 91.8611 177.333 91.176 177.357C91.8195 177.134 92.4756 176.949 93.141 176.803C96.3015 175.944 99.3296 174.657 102.141 172.977C102.707 172.599 103.295 172.255 103.902 171.946V171.946Z" fill="#263238"/>
<path d="M185.852 243.663L181.524 285.677L168.304 285.496L167.354 241.102L185.852 243.663Z" fill="#FFBE9D"/>
<path d="M181.909 281.675V282.555C181.909 282.555 196.8 288.581 196.951 291.41L167.351 291.18L167.83 281.334C170.015 282.398 172.403 282.979 174.832 283.038C177.262 283.097 179.675 282.632 181.909 281.675V281.675Z" fill="#455A64"/>
<g opacity="0.6">
<path opacity="0.6" d="M170.806 284.505C170.521 284.59 170.277 284.776 170.12 285.03C169.964 285.283 169.907 285.585 169.959 285.878C170.033 286.166 170.214 286.415 170.466 286.573C170.718 286.732 171.021 286.787 171.313 286.729C171.615 286.639 171.874 286.44 172.038 286.171C172.202 285.902 172.261 285.581 172.202 285.271C172.094 284.978 171.877 284.739 171.597 284.603C171.316 284.467 170.993 284.445 170.697 284.542" fill="white"/>
</g>
<g opacity="0.6">
<path opacity="0.6" d="M167.354 291.178L167.469 288.81L195.795 289.898C195.795 289.898 197.108 290.481 196.952 291.408L167.354 291.178Z" fill="white"/>
</g>
<path d="M182.014 282.638C182.008 282.782 181.285 282.838 180.57 283.301C179.843 283.742 179.47 284.365 179.339 284.306C179.206 284.277 179.429 283.415 180.303 282.874C181.177 282.333 182.046 282.506 182.014 282.638Z" fill="#263238"/>
<path d="M185.108 283.945C185.139 284.085 184.508 284.327 184.016 284.934C183.502 285.527 183.374 286.186 183.229 286.18C183.093 286.201 183 285.354 183.629 284.611C184.258 283.868 185.106 283.808 185.108 283.945Z" fill="#263238"/>
<path d="M186.842 287.675C186.711 287.705 186.515 286.981 186.893 286.193C187.271 285.405 187.948 285.093 188.009 285.216C188.09 285.336 187.648 285.757 187.348 286.409C187.048 287.061 186.985 287.662 186.842 287.675Z" fill="#263238"/>
<path d="M189.764 254.226L209.87 277.126L200.427 286.38L176.566 265.537L189.764 254.226Z" fill="#FFBE9D"/>
<path d="M207.301 274.036L207.926 274.655C207.926 274.655 222.694 268.334 224.807 270.22L203.789 291.062L197.14 283.785C199.434 282.984 201.529 281.699 203.282 280.017C205.035 278.335 206.406 276.295 207.301 274.036Z" fill="#455A64"/>
<g opacity="0.6">
<path opacity="0.6" d="M201.481 283.91C201.34 284.172 201.301 284.477 201.371 284.766C201.44 285.055 201.614 285.309 201.859 285.478C202.115 285.628 202.42 285.675 202.709 285.608C202.999 285.541 203.252 285.365 203.416 285.117C203.565 284.839 203.606 284.516 203.531 284.21C203.455 283.903 203.269 283.636 203.008 283.459C202.724 283.329 202.401 283.315 202.107 283.418C201.812 283.522 201.569 283.735 201.429 284.014" fill="white"/>
</g>
<g opacity="0.6">
<path opacity="0.6" d="M203.789 291.059L202.189 289.309L222.919 269.974C222.919 269.974 224.258 269.453 224.806 270.218L203.789 291.059Z" fill="white"/>
</g>
<path d="M208.059 274.64C208.159 274.746 207.69 275.301 207.512 276.132C207.312 276.958 207.493 277.66 207.358 277.713C207.244 277.787 206.788 277.022 207.021 276.019C207.254 275.016 207.988 274.524 208.059 274.64Z" fill="#263238"/>
<path d="M211.167 273.367C211.289 273.443 211.018 274.059 211.1 274.838C211.159 275.62 211.536 276.177 211.43 276.274C211.349 276.385 210.682 275.855 210.599 274.883C210.516 273.911 211.068 273.271 211.167 273.367Z" fill="#263238"/>
<path d="M215.035 274.763C214.964 274.877 214.313 274.506 214.019 273.683C213.725 272.86 213.983 272.16 214.112 272.202C214.254 272.229 214.241 272.84 214.492 273.512C214.728 274.19 215.127 274.652 215.035 274.763Z" fill="#263238"/>
<path d="M104.121 123.156C103.399 122.577 102.489 122.284 101.565 122.333C100.64 122.383 99.7667 122.772 99.111 123.425C96.594 125.939 92.94 130.165 92.829 133.594C92.66 138.84 91.814 152.717 91.814 152.717L111.106 152.041C111.106 152.041 111.106 133.595 109.414 129.364C108.457 126.972 106.041 124.687 104.121 123.156Z" fill="#4CCB9E"/>
<path d="M94.041 152.716C94.041 152.716 92.941 163.329 94.164 168.198C95.428 173.235 97.923 173.16 100.028 173.31C102.133 173.46 135.283 156.085 135.283 156.085L131.604 149.553L106.644 157.071L106.876 152.198L94.041 152.716Z" fill="#FFBE9D"/>
<path d="M131.392 149.75L137.376 142.258L142.776 141.007L149.36 141.731C149.425 142.036 149.382 142.354 149.237 142.63C149.093 142.906 148.857 143.124 148.57 143.245L150.875 143.376C150.937 143.544 150.964 143.724 150.955 143.903C150.945 144.082 150.898 144.257 150.818 144.418C150.738 144.578 150.626 144.72 150.488 144.836C150.351 144.951 150.191 145.037 150.019 145.088L151.665 145.377C151.448 145.856 151.078 146.25 150.613 146.495C150.149 146.741 149.615 146.825 149.097 146.734C147.482 146.514 145.854 146.404 144.224 146.405L140.997 148.183L145.804 147.983L149.294 148.642C149.294 148.642 149.755 149.535 148.965 149.742C147.694 149.851 146.416 149.851 145.145 149.742L140.535 150.942C140.141 152.203 139.612 153.418 138.955 154.564C138.363 155.223 135.07 156.078 135.07 156.078L131.392 149.75Z" fill="#FFBE9D"/>
<path d="M150.879 143.377C150.281 143.416 149.681 143.393 149.088 143.311C147.988 143.225 146.468 143.081 144.788 142.901L143.18 142.721L143.246 142.715C141.999 143.067 140.916 143.359 140.146 143.552C139.741 143.684 139.321 143.768 138.896 143.802C139.273 143.602 139.672 143.448 140.085 143.342C140.843 143.091 141.913 142.757 143.154 142.384L143.185 142.374H143.22L144.829 142.541C146.504 142.722 148.019 142.905 149.113 143.055C149.711 143.103 150.303 143.211 150.879 143.377V143.377Z" fill="#EB996E"/>
<path d="M151.277 145.31C150.734 145.333 150.19 145.296 149.655 145.199C148.655 145.085 147.286 144.905 145.774 144.683L144.268 144.456L144.357 144.445C143.128 144.981 141.861 145.427 140.567 145.779C141.746 145.14 142.97 144.588 144.229 144.127L144.271 144.11L144.318 144.116L145.826 144.33C147.339 144.552 148.706 144.772 149.692 144.949C150.232 145.01 150.764 145.131 151.277 145.31V145.31Z" fill="#EB996E"/>
<path d="M135.076 156.086C135.248 156.015 135.424 155.956 135.603 155.908C135.95 155.797 136.466 155.636 137.124 155.4C137.451 155.279 137.815 155.14 138.198 154.959C138.396 154.868 138.586 154.76 138.765 154.635C138.939 154.483 139.078 154.297 139.174 154.087C139.67 153.062 140.091 152.002 140.433 150.915L140.454 150.856L140.514 150.84L145.114 149.617L145.135 149.612H145.159C145.944 149.659 146.775 149.697 147.635 149.695C148.064 149.706 148.492 149.676 148.915 149.605C148.999 149.593 149.078 149.556 149.14 149.499C149.203 149.442 149.247 149.367 149.266 149.284C149.286 149.089 149.248 148.892 149.158 148.718L149.268 148.8L145.777 148.15H145.815L141.008 148.355L140.27 148.386L140.917 148.029L144.142 146.248L144.182 146.226H144.227C145.445 146.235 146.727 146.277 148.034 146.408C148.393 146.446 148.751 146.492 149.107 146.553C149.431 146.613 149.764 146.605 150.084 146.528C150.394 146.437 150.681 146.281 150.926 146.07C151.171 145.859 151.369 145.599 151.505 145.306L151.637 145.55L149.991 145.26L149.385 145.153L149.956 144.924C150.258 144.819 150.511 144.609 150.669 144.331C150.801 144.051 150.818 143.73 150.716 143.438L150.867 143.548L148.567 143.413L147.938 143.376L148.501 143.091C148.753 142.974 148.963 142.782 149.101 142.54C149.224 142.303 149.263 142.032 149.21 141.77L149.352 141.892L142.769 141.15H142.818L137.418 142.377L137.486 142.334L133.058 147.788L131.845 149.253L131.524 149.628C131.45 149.711 131.41 149.752 131.406 149.748C131.429 149.697 131.46 149.649 131.497 149.606L131.791 149.206L132.952 147.7L137.293 142.176L137.319 142.142L137.362 142.132L142.756 140.858L142.78 140.853H142.805L149.392 141.56L149.512 141.573L149.535 141.682C149.612 142.024 149.565 142.382 149.403 142.693C149.234 142.998 148.975 143.243 148.66 143.393L148.594 143.071L150.899 143.2L151.016 143.206L151.05 143.306C151.119 143.496 151.149 143.697 151.14 143.899C151.13 144.101 151.08 144.299 150.993 144.481C150.796 144.837 150.476 145.108 150.093 145.244L150.059 144.908L151.705 145.195L151.936 145.235L151.836 145.435C151.679 145.778 151.45 146.083 151.164 146.33C150.878 146.576 150.543 146.757 150.18 146.862C149.81 146.952 149.425 146.963 149.051 146.894C148.707 146.835 148.357 146.794 148.003 146.752C146.72 146.623 145.437 146.58 144.233 146.569L144.318 146.547L141.09 148.322L140.999 147.996L145.806 147.807H145.825H145.843L149.331 148.474L149.411 148.489L149.442 148.556C149.564 148.793 149.611 149.062 149.575 149.326C149.543 149.465 149.472 149.592 149.369 149.691C149.267 149.79 149.137 149.857 148.997 149.884C148.549 149.959 148.095 149.99 147.641 149.976C146.768 149.976 145.941 149.927 145.141 149.876H145.186L140.57 151.053L140.65 150.978C140.292 152.072 139.851 153.138 139.331 154.165C139.22 154.394 139.061 154.597 138.864 154.759C138.675 154.887 138.474 154.997 138.264 155.088C137.864 155.265 137.499 155.395 137.164 155.508C136.496 155.728 135.975 155.87 135.62 155.961L135.22 156.061C135.174 156.077 135.125 156.086 135.076 156.086Z" fill="#EB996E"/>
<path d="M91.481 152.716C91.587 152.689 91.6957 152.676 91.805 152.675L92.74 152.615L96.231 152.449L108.193 151.991L108.026 152.158C108.07 150.481 108.042 148.693 107.947 146.858C107.795 143.822 107.531 140.934 107.361 138.299C107.269 136.981 107.232 135.726 107.126 134.565C107.038 133.488 106.871 132.418 106.626 131.365C106.285 129.836 105.651 128.387 104.759 127.099C104.109 126.199 103.627 125.799 103.653 125.776C103.781 125.856 103.899 125.951 104.003 126.06C104.318 126.354 104.608 126.674 104.87 127.016C105.822 128.294 106.502 129.753 106.87 131.304C107.134 132.367 107.317 133.448 107.417 134.538C107.537 135.712 107.585 136.965 107.686 138.278C107.873 140.907 108.148 143.795 108.3 146.842C108.4 148.687 108.42 150.484 108.368 152.173V152.336H108.206L96.24 152.67L92.74 152.734H91.804C91.696 152.741 91.5875 152.735 91.481 152.716V152.716Z" fill="#263238"/>
<path d="M105.314 174.763C105.314 174.763 96.581 186.679 96.581 191.443C96.581 196.207 96.764 203.351 102.443 208.48C108.122 213.609 177.607 273.627 177.607 273.627L194.542 258.692L131.576 195.106C131.576 195.106 134.507 189.793 133.224 187.595C132.468 186.289 131.311 185.261 129.924 184.664L129.741 172.874L105.314 174.763Z" fill="#263238"/>
<path d="M136.149 172.378L137.626 184.938C137.626 184.938 182.351 208.115 185.959 214.963C187.594 218.063 189.179 246.157 189.179 246.157L167.126 246.657L164.273 224.398L152.439 217.998L131.283 196.498L124.078 173.309L136.149 172.378Z" fill="#263238"/>
<path d="M115.978 174.29C116.078 174.528 116.146 174.779 116.178 175.036C116.314 175.726 116.4 176.424 116.436 177.126C116.493 178.173 116.417 179.223 116.21 180.251C115.954 181.521 115.441 182.725 114.702 183.789C113.963 184.866 112.953 185.729 111.773 186.289C110.802 186.73 109.737 186.924 108.673 186.852C107.961 186.805 107.266 186.615 106.629 186.295C106.458 186.208 106.294 186.108 106.139 185.995C106.034 185.916 105.982 185.871 105.989 185.861C106.827 186.294 107.747 186.547 108.689 186.604C109.704 186.637 110.712 186.428 111.631 185.995C112.746 185.446 113.702 184.619 114.407 183.595C115.662 181.685 116.282 179.428 116.18 177.145C116.146 175.381 115.913 174.3 115.978 174.29Z" fill="#263238"/>
<path d="M133.124 182.81C132.792 183.173 132.4 183.477 131.966 183.71C129.94 184.961 127.611 185.637 125.23 185.663C124.74 185.699 124.247 185.652 123.772 185.525C125.412 185.443 127.04 185.202 128.633 184.804C130.191 184.287 131.696 183.619 133.124 182.81V182.81Z" fill="#455A64"/>
<path d="M131.772 174.388C131.753 174.354 132.194 174.235 132.722 174.634C132.876 174.754 133 174.907 133.085 175.083C133.169 175.259 133.211 175.452 133.208 175.647C133.205 175.892 133.134 176.13 133.001 176.336C132.869 176.542 132.681 176.706 132.46 176.81C132.23 176.902 131.977 176.922 131.736 176.868C131.494 176.813 131.275 176.686 131.107 176.503C130.971 176.354 130.883 176.167 130.856 175.967C130.828 175.766 130.862 175.563 130.952 175.382C131.005 175.264 131.081 175.159 131.176 175.071C131.271 174.983 131.382 174.915 131.503 174.871C131.676 174.817 131.776 174.844 131.777 174.863C131.799 174.913 131.377 174.963 131.185 175.48C131.131 175.615 131.117 175.762 131.146 175.904C131.175 176.047 131.245 176.177 131.347 176.28C131.472 176.404 131.631 176.489 131.803 176.526C131.976 176.562 132.155 176.549 132.32 176.486C132.481 176.407 132.617 176.286 132.716 176.136C132.815 175.987 132.872 175.814 132.882 175.635C132.89 175.484 132.865 175.334 132.809 175.194C132.753 175.054 132.667 174.927 132.557 174.824C132.161 174.442 131.762 174.446 131.772 174.388Z" fill="#455A64"/>
<path d="M133.211 197.536C132.69 197.166 132.197 196.759 131.734 196.319C130.569 195.324 129.349 194.395 128.08 193.538C126.807 192.688 125.474 191.931 124.092 191.273C123.501 191.032 122.925 190.758 122.366 190.45C122.998 190.568 123.613 190.767 124.194 191.043C125.624 191.641 126.992 192.378 128.278 193.243C129.564 194.105 130.776 195.072 131.903 196.133C132.392 196.548 132.831 197.019 133.211 197.536V197.536Z" fill="#455A64"/>
<path d="M136.039 189.106C135.993 188.32 136.15 187.535 136.494 186.828C136.839 186.12 137.36 185.512 138.007 185.064C138.081 185.141 137.35 185.864 136.815 186.983C136.28 188.102 136.146 189.118 136.039 189.106Z" fill="#455A64"/>
<path d="M186.284 276.954C185.854 276.6 185.464 276.201 185.12 275.764C184.436 274.999 183.509 273.927 182.503 272.729C182.288 272.438 182.028 272.182 181.733 271.973C181.456 271.811 181.134 271.746 180.816 271.787C180.245 271.879 179.703 272.104 179.234 272.442C178.8 272.804 178.286 273.057 177.734 273.181C177.726 273.142 178.277 272.869 179.088 272.233C179.576 271.838 180.157 271.572 180.775 271.461C181.166 271.402 181.565 271.477 181.908 271.674C182.24 271.899 182.533 272.178 182.772 272.5C183.778 273.7 184.672 274.8 185.309 275.6C185.682 276.015 186.009 276.469 186.284 276.954V276.954Z" fill="#455A64"/>
<path d="M177.607 273.627C177.607 273.627 177.7 273.527 177.894 273.349L178.759 272.56L182.109 269.56L194.454 258.594L194.448 258.786L162.496 226.934L139.545 203.976L137.045 201.467L135.831 200.25C135.431 199.844 135.038 199.45 134.616 199.091C133.718 198.438 132.991 197.578 132.498 196.583C132.291 196.071 132.246 195.508 132.369 194.969C132.492 194.435 132.717 193.99 132.859 193.51C133.173 192.595 133.4 191.653 133.538 190.696C133.696 189.811 133.627 188.901 133.338 188.05C132.936 187.312 132.416 186.646 131.798 186.077C131.241 185.535 130.599 185.089 129.898 184.755L129.836 184.727V184.664C129.798 181.083 129.768 178.249 129.747 176.293C129.747 175.335 129.739 174.593 129.737 174.074C129.737 173.833 129.737 173.645 129.737 173.504C129.735 173.439 129.738 173.375 129.748 173.311C129.759 173.375 129.764 173.439 129.764 173.504C129.769 173.646 129.777 173.832 129.787 174.074C129.801 174.592 129.822 175.334 129.849 176.292C129.891 178.247 129.949 181.081 130.03 184.662L129.967 184.572C130.697 184.909 131.367 185.364 131.947 185.921C132.593 186.505 133.136 187.194 133.553 187.959C133.865 188.847 133.945 189.8 133.787 190.728C133.652 191.702 133.426 192.661 133.112 193.593C132.971 194.075 132.741 194.552 132.637 195.025C132.527 195.513 132.57 196.023 132.76 196.485C133.243 197.434 133.946 198.254 134.811 198.876C135.237 199.235 135.638 199.632 136.035 200.034L137.254 201.247L139.766 203.747L162.751 226.676L194.644 258.598L194.744 258.698L194.638 258.791L182.215 269.669L178.815 272.618L177.924 273.379C177.717 273.548 177.607 273.627 177.607 273.627Z" fill="#455A64"/>
<path d="M187.525 274.458C185.971 272.511 184.816 270.277 184.125 267.883C184.225 267.845 184.88 269.366 185.82 271.174C186.76 272.982 187.61 274.402 187.525 274.458Z" fill="#455A64"/>
<path d="M191.879 271.367C189.765 269.763 188.097 267.644 187.036 265.212C187.13 265.161 188.004 266.687 189.342 268.38C190.68 270.073 191.951 271.288 191.879 271.367Z" fill="#455A64"/>
<path d="M194.632 268.329C193.062 266.495 191.581 264.587 190.194 262.611C191.948 264.287 193.444 266.214 194.632 268.329V268.329Z" fill="#455A64"/>
<path d="M197.5 263.291C195.904 262.478 194.425 261.456 193.1 260.251C194.695 261.065 196.174 262.087 197.5 263.291Z" fill="#455A64"/>
<path d="M157.223 223.359C157.288 223.433 154.248 226.228 150.435 229.602C146.622 232.976 143.475 235.652 143.41 235.578C143.345 235.504 146.383 232.709 150.199 229.334C154.015 225.959 157.158 223.285 157.223 223.359Z" fill="#455A64"/>
<path d="M156.64 224.548C156.435 225.03 156.166 225.481 155.84 225.891C154.401 227.955 152.689 229.815 150.751 231.419C150.369 231.775 149.941 232.077 149.478 232.319C149.41 232.234 151.25 230.733 153.221 228.582C155.192 226.431 156.549 224.488 156.64 224.548Z" fill="#455A64"/>
<path d="M117.285 175.431C117.283 175.625 117.249 175.818 117.185 176.001C117.058 176.512 116.886 177.012 116.671 177.493C116.36 178.212 115.981 178.9 115.538 179.546C114.447 181.136 113.017 182.464 111.35 183.434C110.672 183.827 109.958 184.154 109.218 184.411C108.722 184.589 108.212 184.722 107.693 184.811C107.505 184.861 107.31 184.88 107.116 184.868C107.103 184.803 107.916 184.655 109.13 184.173C109.841 183.889 110.528 183.547 111.182 183.149C112.788 182.174 114.178 180.884 115.27 179.355C115.715 178.732 116.107 178.073 116.443 177.385C117.009 176.208 117.22 175.412 117.285 175.431Z" fill="#455A64"/>
<path d="M170.128 215.953C167.453 218.279 165.386 221.221 164.104 224.526C164.163 224.003 164.304 223.493 164.521 223.014C165.432 220.636 166.918 218.521 168.846 216.858C169.224 216.491 169.656 216.186 170.128 215.953V215.953Z" fill="#455A64"/>
<path d="M174.631 218.446C174.654 218.557 172.205 218.995 169.405 220.185C166.596 221.356 164.57 222.801 164.505 222.707C164.885 222.316 165.318 221.979 165.791 221.707C167.994 220.264 170.441 219.234 173.013 218.667C173.539 218.518 174.084 218.444 174.631 218.446V218.446Z" fill="#455A64"/>
</g>
<defs>
<clipPath id="clip0">
<rect width="305" height="305.464" fill="white"/>
</clipPath>
</defs>
</svg>
